<svg width="257" height="269" viewBox="0 0 257 269" fill="none" xmlns="http://www.w3.org/2000/svg">
<path d="M4.88006 149.336C7.22378 136.14 11.2111 124.057 17.0907 112.164C26.3661 93.3998 42.4577 73.9499 76.7845 59.1495C82.1266 53.2674 88.0175 47.8507 91.4234 41.1939C98.2482 27.8577 103.273 10.8396 114.437 2.94913C87.4775 4.03007 58.8361 9.09508 23.7892 19.1588C17.7083 20.8884 12.2028 23.464 8.73029 29.6259C7.40674 31.7665 6.66752 34.0402 6.15173 36.379L6.1481 36.3953L6.14459 36.4127L6.1407 36.4315L6.13644 36.4511L6.13181 36.4724L6.12717 36.4944L6.12228 36.5175V36.5179L6.11727 36.5424H6.11689L6.11163 36.568H6.11125L6.10587 36.5946L6.10023 36.6226L6.09421 36.6519L6.08782 36.682H6.08745L6.08105 36.7132L6.06714 36.7793L6.06 36.8137L6.05298 36.8496H6.05261L6.03732 36.9246V36.9249L6.0288 36.9636L6.02066 37.0042L6.01251 37.0453L6.00361 37.088L5.99471 37.1317V37.132L5.98544 37.1764V37.1768L5.97629 37.2223V37.2226L5.96626 37.2691L5.95674 37.3171L5.94671 37.3665L5.93682 37.4166V37.4169L5.92617 37.4678V37.4681L5.91589 37.5203L5.90487 37.5739L5.89422 37.6283L5.88281 37.6837L5.87178 37.7405L5.86012 37.7984L5.84797 37.8571L5.83632 37.9171L5.82417 37.9781L5.81213 38.0403L5.79973 38.1032H5.79935L5.78695 38.1675H5.78656L5.77416 38.2325L5.76101 38.299L5.74823 38.3661H5.74784L5.73469 38.4343H5.73432L5.72078 38.5038L5.70737 38.5743L5.69346 38.6459L5.6793 38.7181L5.66501 38.7919H5.66476L5.65085 38.8666L5.63632 38.9419H5.63595L5.6214 39.0186L5.60675 39.0964L5.59158 39.1749L5.5763 39.2548L5.56063 39.3354L5.54571 39.4171H5.54534L5.52968 39.4996L5.51376 39.5834L5.49772 39.6682L5.47541 39.7873L5.46827 39.8252L5.46113 39.863L5.45411 39.901L5.44697 39.9393V39.9397L5.43945 39.9776L5.43243 40.0167L5.42529 40.0555L5.41777 40.0942L5.41076 40.1337L5.40361 40.1728L5.39584 40.2125L5.3887 40.252V40.2523L5.38118 40.292L5.38093 40.2924L5.37378 40.3319V40.3321L5.36627 40.3724V40.3726L5.35888 40.4125L5.3585 40.4128L5.35136 40.4533V40.4537L5.34397 40.4946V40.4949L5.33607 40.535V40.5354L5.32868 40.5766V40.5769L5.32091 40.6175V40.6181L5.31339 40.6594V40.6597L5.30599 40.7013L5.30562 40.7016L5.29772 40.7428V40.7432L5.29033 40.7852V40.7854L5.28281 40.827L5.28243 40.8278L5.27467 40.8696V40.8704L5.2669 40.9122V40.913L5.259 40.9548V40.9556L5.25123 40.9978V40.9989L5.24346 41.0412V41.0419L5.23519 41.0849V41.0856L5.22779 41.1279L5.22742 41.1289L5.21965 41.1719L5.21928 41.1726L5.21176 41.216L5.2115 41.2167L5.20362 41.2599V41.2611L5.19547 41.3041V41.3051L5.1877 41.3484L5.18732 41.3496L5.17943 41.3932L5.17918 41.3943L5.17128 41.4383V41.439L5.16351 41.4834L5.16314 41.4842L5.15499 41.5283V41.5293L5.14684 41.5736V41.5748L5.13857 41.6195L5.13833 41.6202L5.13043 41.6654V41.666L5.12228 41.7111V41.7122L5.11377 41.7573V41.7583L5.10562 41.8038V41.8046L5.0971 41.8504V41.8511L5.08896 41.8966V41.8977L5.08069 41.9434V41.9446L5.07216 41.9906L5.07191 41.9914L5.06401 42.0379L5.06364 42.0386L5.05512 42.0855V42.0863L5.04697 42.1331L5.04659 42.1339L5.03845 42.1811V42.1815L5.02993 42.229L5.02956 42.2298L5.02141 42.2774V42.2778L5.01251 42.3256V42.326L5.00436 42.3744V42.3748L4.99547 42.423V42.4234L4.98694 42.472L4.97843 42.5214L4.96952 42.5707L4.9674 42.5846L4.82103 43.4254L4.80937 43.4925L4.79798 43.5605L4.7862 43.6283L4.77455 43.696V43.6964L4.76277 43.7647L4.75111 43.8335H4.75073L4.73933 43.9024L4.7273 43.9714V43.9717L4.7159 44.0414H4.71552L4.70386 44.111L4.70349 44.1113L4.69171 44.1814V44.1816L4.68006 44.2517V44.2521L4.66803 44.3224L4.65624 44.3934L4.65587 44.3938L4.64422 44.4645L4.64384 44.4649L4.63168 44.5361V44.5365L4.62004 44.608L4.61965 44.6083L4.60763 44.6804L4.59585 44.7526L4.59547 44.7529L4.58344 44.8254V44.8257L4.57166 44.8986L4.57104 44.8989L4.55926 44.9717H4.55888L4.54685 45.0451L4.54648 45.0455L4.53482 45.1187V45.1191L4.52229 45.193V45.1933L4.50988 45.2676L4.50951 45.268L4.49785 45.3421H4.49748L4.48544 45.4171H4.48507L4.47292 45.4924L4.46051 45.5677L4.44773 45.6434V45.6438L4.4357 45.7197L4.42292 45.7961L4.41076 45.8725L4.41038 45.8729L4.39798 45.9493L4.3852 46.0264V46.0267L4.37316 46.1038L4.37279 46.104L4.36038 46.1815H4.36001L4.3476 46.2597H4.34722L4.33507 46.3379H4.33482L4.32229 46.4163H4.32204L4.30988 46.4951H4.30951L4.29673 46.5737L4.28394 46.6533L4.27153 46.7325V46.7329L4.25838 46.8124L4.2456 46.8926L4.2332 46.9734H4.23281L4.22003 47.0539L4.20725 47.1346L4.19447 47.2156V47.2159L4.18131 47.2973L4.16853 47.3786V47.379L4.15575 47.4607H4.15537L4.14259 47.5428L4.12981 47.6251L4.11665 47.7083L4.1035 47.791L4.09071 47.8742L4.07755 47.9577L4.06439 48.0411L4.05136 48.1253V48.1256L4.03821 48.2094L4.02542 48.294L4.01477 48.3629L3.87655 49.2634L3.82041 49.6325L3.69497 50.4722L3.65701 50.7293L3.65199 50.7638L3.6471 50.7983L3.64209 50.8327L3.63682 50.8676L3.63181 50.9024L3.6268 50.9368L3.6218 50.9713V50.9717L3.61653 51.0062H3.61615L3.61152 51.0409H3.61113L3.60663 51.0757L3.60625 51.0761L3.60161 51.1105H3.60124L3.59623 51.1454H3.59597L3.59096 51.1802L3.58595 51.2149L3.58107 51.2498V51.2505L3.57567 51.2853L3.57066 51.3201L3.56578 51.3553L3.56076 51.3901L3.55538 51.4252H3.55513L3.55049 51.4608H3.55011L3.54547 51.4956L3.5451 51.496L3.54046 51.5307L3.54021 51.5311L3.53482 51.5659V51.5663L3.52981 51.6018L3.52493 51.637L3.51991 51.6722L3.51453 51.7077L3.50964 51.7429H3.50926L3.50462 51.7787H3.50425L3.49961 51.8139H3.49936L3.49397 51.8494L3.48896 51.885L3.48407 51.9208L3.47906 51.9563L3.47367 51.9919L3.46377 52.0633H3.46339L3.45876 52.0991H3.45851L3.45312 52.135L3.44811 52.1706V52.1708L3.44322 52.2064L3.43821 52.2426L3.43282 52.2785L3.42793 52.3144H3.42755L3.42254 52.3502L3.41766 52.3865L3.41226 52.4223V52.4227L3.40726 52.4585L3.40237 52.4945V52.4949L3.39736 52.5311H3.39698L3.39172 52.5673L3.3867 52.6031V52.6035L3.38169 52.6397V52.6401L3.3768 52.676V52.6763L3.37141 52.7126L3.36615 52.7488L3.36114 52.7854L3.35613 52.8216V52.8219L3.35087 52.8581L3.34585 52.8951L3.34046 52.9313L3.33558 52.9679L3.33019 53.0045L3.3174 53.0994L3.29861 53.2343V53.2347L3.27981 53.3697L3.26089 53.5058L3.2421 53.6418V53.6422L3.2233 53.7789H3.22292L3.20412 53.916V53.9164L3.18532 54.0535V54.0539L3.1664 54.1917V54.1921L3.14761 54.3298V54.3306L3.12881 54.4692L3.12844 54.4694L3.11002 54.6088L3.10963 54.609L3.09084 54.7486V54.749L3.07229 54.8886V54.8894L3.05349 55.0293V55.0297L3.0347 55.1707L3.03432 55.171L3.0159 55.3124L3.01553 55.3128L2.99673 55.4545V55.4549L2.97781 55.597V55.5973L2.95902 55.7401V55.7405L2.94021 55.8832L2.93984 55.8836L2.92141 56.0271L2.92104 56.0274L2.90249 56.1713L2.90212 56.1717L2.88332 56.3159V56.3163L2.86453 56.4612V56.4615L2.84573 56.6065V56.6068L2.82694 56.7525V56.7529L2.80839 56.8989V56.8991L2.78959 57.0458V57.0462L2.7708 57.1932L2.75187 57.3407L2.73307 57.4888L2.71427 57.6373V57.6377L2.69548 57.7861V57.7864L2.67693 57.9353L2.67656 57.9357L2.65813 58.0856H2.65776L2.63934 58.2354L2.62054 58.3865L2.60199 58.5371H2.60162L2.5832 58.6887L2.56477 58.8405L2.54623 58.9928L2.52743 59.1452L2.50902 59.2984L2.49047 59.4517H2.49009L2.47167 59.6056V59.6059L2.45325 59.7601L2.4347 59.9146L2.39736 60.225V60.2254L2.37894 60.3813L2.36077 60.5373H2.36052L2.34272 60.694V60.6943L2.32431 60.851V60.8513L2.30576 61.0086L2.28734 61.1668L2.26916 61.3248V61.3252L2.25075 61.4836V61.4839L2.23257 61.6427L2.21415 61.8022L2.19598 61.9621L2.17793 62.1223L2.16014 62.2828V62.2832L2.14198 62.4441L2.12393 62.6054L2.10049 62.815L2.09762 62.8359V62.8363L2.09548 62.8576L2.09298 62.8785V62.8789L2.09085 62.8998L2.08834 62.9215L2.08621 62.9424L2.0837 62.9637L2.08157 62.985V62.9854L2.07919 63.0063L2.07669 63.0278L2.07418 63.0491V63.0493L2.07205 63.0704H2.07167L2.06955 63.0917L2.06491 63.1343V63.1347L2.06278 63.1556H2.0624L2.06027 63.1773L2.05814 63.1986H2.05751L2.05539 63.2195V63.2203L2.05075 63.2625V63.2629L2.04611 63.3055L2.04398 63.3268H2.0436L2.04148 63.3485L2.03934 63.3698H2.03897L2.03646 63.3911L2.03433 63.4127H2.03408L2.03195 63.434L2.02982 63.4553H2.02944L2.02732 63.477L2.02518 63.4983H2.0248L2.02268 63.5197V63.52L2.02055 63.5413V63.5417L2.01804 63.5626V63.563L2.01553 63.5843L2.01341 63.606H2.01302L2.01089 63.6273L2.00639 63.6703V63.6706L2.00426 63.692H2.00387L2.00175 63.7133L1.99962 63.7349L1.99711 63.7566L1.99461 63.7779L1.99209 63.7996L1.98997 63.8212L1.98784 63.8429H1.98746L1.98534 63.8642L1.9832 63.8859L1.9807 63.9076L1.97857 63.9293L1.9758 63.9506L1.97368 63.9726L1.97155 63.994H1.97118L1.96904 64.0153V64.0156L1.96691 64.0373L1.96441 64.0588L1.96228 64.0803L1.96014 64.1022L1.95764 64.1235L1.95513 64.1452L1.95263 64.1669L1.9505 64.1886L1.93421 64.3406L1.93207 64.3616L1.92994 64.3821L1.92744 64.4035L1.9253 64.4241L1.92317 64.4451L1.92105 64.4664L1.91892 64.4869L1.91679 64.5079L1.82618 65.3725L1.82406 65.3938L1.82193 65.4151L1.81979 65.436L1.81766 65.4573L1.80639 65.5636L1.80426 65.5849L1.80213 65.6062L1.79999 65.6271L1.79786 65.6488L1.79573 65.6699L1.79322 65.6912L1.76228 65.9923L1.64548 67.16L1.58684 67.7588L1.48483 68.8287L1.43233 69.4007L1.32431 70.5907L1.28909 70.9974L1.28696 71.0187L1.28521 71.0404L1.28308 71.0617L1.28132 71.083L1.27957 71.1047L1.27781 71.126L1.27594 71.1473L1.2703 71.212L1.26854 71.2336L1.26642 71.255L1.26503 71.2705L1.2639 71.2858H1.26353L1.26253 71.3014L1.26102 71.3171L1.25965 71.3324L1.25864 71.3479H1.25827L1.25714 71.3636H1.25676L1.25577 71.3789L1.25438 71.3945L1.25325 71.4098H1.25288L1.25187 71.4254H1.2515L1.25037 71.441L1.249 71.4563L1.24799 71.472H1.24762L1.24611 71.4875H1.24586L1.24473 71.5024L1.24336 71.5181L1.24223 71.5337H1.24186L1.24085 71.549H1.24047L1.23947 71.5647L1.23796 71.5799L1.23696 71.5955H1.23659L1.23546 71.6112H1.23521L1.23408 71.6265L1.23271 71.6422L1.23158 71.6577H1.2312L1.2302 71.673L1.22869 71.6887L1.22769 71.7043H1.22731L1.22594 71.7195L1.22444 71.7351L1.22306 71.7508L1.22206 71.7661H1.22167L1.22054 71.7817L1.21917 71.7973L1.21804 71.8126H1.21779L1.21666 71.8283L1.21529 71.8439L1.21416 71.8591H1.21379L1.21278 71.8748L1.2114 71.8904L1.21028 71.9061H1.20989L1.20889 71.9214L1.20739 71.9369L1.20601 71.9525H1.20564L1.20464 71.9678L1.20313 71.9835L1.20213 71.999L1.20074 72.0147L1.19924 72.03L1.19824 72.0457L1.19674 72.061L1.19573 72.0765H1.19536L1.19436 72.0922L1.19286 72.1075L1.19185 72.1231L1.19035 72.1387L1.18897 72.1543L1.18784 72.17L1.18646 72.1856L1.18508 72.2008L1.18358 72.2165L1.18258 72.2321L1.1812 72.2478L1.17932 72.2697L1.17757 72.2914L1.17581 72.3131L1.17406 72.3348L1.1723 72.3565L1.17055 72.3781L1.15564 72.5607L1.15351 72.5849L1.15162 72.6089L1.1495 72.6331L1.14774 72.6577L1.14524 72.6815L1.14348 72.706L1.14135 72.7301L1.1396 72.7547C1.10438 73.183 1.06855 73.614 1.03484 74.0469L1.03308 74.0715L1.03095 74.0959L1.02907 74.1208L1.01954 74.2477L1.00965 74.3768L0.999618 74.5062H0.999245L0.989723 74.6355L0.979445 74.7648L0.969799 74.8945L0.959894 75.0241V75.0245L0.950247 75.1542H0.949874L0.940352 75.2841L0.93997 75.2845L0.930696 75.4148H0.930323L0.920801 75.5453H0.920428L0.911154 75.6756L0.901249 75.8063L0.891975 75.937H0.891603L0.882453 76.0685L0.872806 76.1995L0.863533 76.3306H0.863284L0.85401 76.462H0.853637L0.844737 76.5935L0.844364 76.5941L0.835214 76.7256H0.834832L0.82594 76.8574L0.816294 76.9891V76.9895L0.807517 77.1217H0.807144L0.79787 77.2538V77.2542L0.78897 77.3864L0.779696 77.5188H0.779447L0.770929 77.652H0.770546L0.762028 77.7845H0.761655L0.752754 77.9177L0.743863 78.0509L0.734962 78.1841H0.734589L0.726061 78.3181L0.717294 78.4513H0.716921L0.708393 78.5851L0.699874 78.7191L0.690973 78.853L0.682455 78.9868L0.673936 79.1216H0.673554L0.665408 79.2558L0.656517 79.3907L0.648371 79.5251V79.5255L0.640101 79.6604H0.639853L0.631325 79.795L0.623055 79.9303L0.614909 80.0657H0.614536L0.606764 80.201V80.2014L0.598618 80.3363V80.3367L0.590099 80.4725L0.582202 80.6082L0.574057 80.7441L0.566294 80.8802H0.565911L0.558521 81.0167H0.558148L0.550251 81.1526L0.542478 81.2895L0.534332 81.4258L0.526818 81.5626V81.5629L0.519045 81.6994L0.511158 81.8365V81.8369L0.503758 81.9739L0.495994 82.111L0.48847 82.2485L0.48108 82.386L0.473556 82.5238L0.466041 82.6617L0.459024 82.7995L0.438095 83.1835L0.436967 83.2034L0.435591 83.2225L0.434835 83.2421L0.433831 83.2617L0.432703 83.2815L0.392233 84.1039L0.391105 84.1233L0.389346 84.1628L0.388342 84.1823L0.386592 84.2218L0.385464 84.2416L0.384709 84.2612L0.383715 84.2807L0.382587 84.3002L0.381956 84.3202L0.380827 84.3397L0.379824 84.3593L0.379078 84.3791L0.378074 84.399L0.377319 84.4185L0.376191 84.4381L0.341734 85.1518L0.287095 86.4081L0.259771 87.062L0.208268 88.424L0.186594 89.0339L0.145369 90.3101L0.12293 91.0725L0.089602 92.3673L0.0743146 93.0575L0.0739417 93.078L0.0735593 93.0989L0.0729378 93.12L0.0725554 93.1406L0.0721825 93.1615L0.0718097 93.1822L0.070433 93.224L0.0700505 93.2446L0.0696777 93.2656L0.0693048 93.2862L0.0675457 93.3696L0.0671728 93.3903L0.0497534 94.2663L0.0493709 94.2872L0.0491224 94.3081L0.0487495 94.3292L0.0483766 94.3501L0.0479942 94.3706L0.0476214 94.3919L0.036598 95.0812L0.0185476 96.4256L0.0114058 97.2156V97.2348L0.0110329 97.2539V97.2543V97.2735L0.0106505 97.2927V97.3122L0.0100291 97.3314V97.3318V97.3509L0.00965621 97.3701V97.3897V97.3901L0.00927378 97.4088V97.4092V97.4284V97.4476L0.00890092 97.4667V97.4671V97.4863V97.4867L0.00852806 97.5058V97.525V97.5254L0.00826992 97.5442V97.5446V97.5633V97.5637L0.00789706 97.5833V97.6024V97.6028V97.6216V97.622L0.00752419 97.6412V97.6607L0.00714177 97.6799V97.6803V97.699V97.6994V97.7186L0.00676891 97.7378V97.7382V97.7573V97.7577L0.00639604 97.7765V97.7769V97.796V97.7964V97.8152V97.8156L0.00614747 97.8344V97.8348V97.8543L0.00576504 97.8735V97.8739V97.8927V97.8931V97.9122L0.00539218 97.9314V97.932V97.951V97.9513V97.9705L0.00501932 97.9897V97.99V98.0088V98.0092L0.00463689 98.0286V98.0479V98.0482V98.0674L0.00426403 98.0866V98.0869V98.1058V98.1061V98.1256L0.00401545 98.1448V98.1452V98.1643V98.1835V98.2027V98.2034L0.00363303 98.2226V98.2418V98.2422V98.2613L0.00326017 98.2805V98.2809V98.3005V98.3196V98.32V98.3392L0.0028873 98.3583V98.3779V98.3974L0.00250488 98.417V98.4361V98.4557L0.000755288 99.3789L0 100.567L0.00401545 101.317V101.338L0.00426403 101.359V101.381V101.403V101.424H0.00463689V101.446V101.467V101.488H0.00501932V101.51V101.531V101.532V101.552V101.553V101.574V101.574H0.00539218V101.596V101.617V101.639H0.00576504V101.66V101.681V101.682V101.703V101.703V101.724V101.725H0.00614747V101.746V101.768V101.789H0.00639604V101.811V101.832V101.832V101.853V101.854L0.00676891 101.875V101.897V101.918L0.00714177 101.94V101.961V101.983L0.00752419 102.004V102.026V102.047V102.047L0.00789706 102.069V102.09V102.112L0.00826992 102.133V102.155V102.155V102.176V102.176L0.00852806 102.198V102.219V102.241H0.00890092V102.262V102.263V102.284L0.00927378 102.306V102.327V102.348L0.00965621 102.349V102.37V102.392L0.0100291 102.413V102.413V102.435V102.456H0.0106505V102.477V102.478V102.499H0.0110329V102.521V102.542H0.0114058V102.564V102.585H0.0117787V102.607V102.629L0.0121611 102.65V102.672L0.0125339 102.693L0.0127825 102.725L0.0131649 102.757V102.789H0.0135378V102.821L0.0139107 102.853L0.0142835 102.885L0.014666 102.917L0.0149145 102.949L0.0152874 102.981L0.0156698 103.013L0.0160427 103.045V103.077H0.0164156V103.109H0.016798V103.141L0.0171708 103.141V103.173L0.0174194 103.173V103.205L0.0177923 103.205V103.237H0.0181747V103.269H0.0185476V103.301H0.0189204V103.333H0.0193029L0.0195514 103.365L0.0199243 103.397V103.397L0.0203067 103.429L0.0206796 103.461L0.0210524 103.493L0.0214349 103.525L0.0216834 103.557L0.0220563 103.59H0.0224292V103.622H0.0228116V103.654H0.0231845L0.0235573 103.686L0.0238155 103.718L0.0241883 103.75L0.0245612 103.782L0.0249436 103.814H0.0253165L0.0256893 103.846L0.0259379 103.878L0.0263203 103.91L0.0266932 103.942L0.0270661 103.974H0.0274485L0.0278214 104.006L0.0280699 104.039L0.0284524 104.071L0.0291981 104.103V104.103L0.0295805 104.135L0.0299534 104.167L0.0302019 104.199H0.0309572L0.0313301 104.231L0.031703 104.263V104.263L0.0320854 104.295H0.032334L0.0327068 104.327V104.328L0.0330892 104.36L0.0334621 104.392H0.033835L0.0342174 104.424L0.034466 104.456L0.0352117 104.488L0.0355941 104.52L0.035967 104.553L0.036598 104.585L0.0369708 104.617L0.0377261 104.649L0.038099 104.681L0.0387204 104.713L0.0391029 104.746L0.0394757 104.767L0.0398486 104.788L0.040231 104.808L0.0406039 104.83L0.0408525 104.851L0.0412349 104.872L0.0416077 104.893L0.0419806 104.914L0.0423535 104.934L0.0427359 104.956L0.0429845 104.977L0.0433573 104.998L0.055767 105.608L0.0561399 105.629L0.0576504 105.692L0.057899 105.713L0.0582719 105.734L0.0586447 105.755L0.0594 105.776L0.0597729 105.797L0.060031 105.819L0.0604039 105.84L0.0607767 105.861L0.061532 105.882L0.0619049 105.903L0.0622873 105.924L0.0625359 105.945L0.0632816 105.966L0.063664 105.987L0.0640369 106.008L0.0644098 106.029L0.0650408 106.05L0.0654136 106.072L0.0657961 106.092L0.0814563 106.856L0.0817049 106.875L0.0824602 106.895L0.0828331 106.914L0.0832059 106.935L0.0838369 106.954L0.0842098 106.974L0.0845922 106.994L0.0853379 107.014L0.0857204 107.033L0.0863418 107.053L0.0867147 107.073V107.073L0.0870971 107.093L0.0878428 107.113V107.113L0.0881009 107.133L0.0888467 107.152V107.152L0.0892291 107.172L0.0899748 107.192V107.192L0.0902234 107.212L0.0909787 107.232L0.091734 107.251V107.252L0.0923554 107.271L0.0927378 107.291V107.291L0.0931107 107.311L0.093866 107.331L0.0942389 107.351V107.351L0.0948603 107.371L0.0952427 107.39V107.39L0.0959884 107.41L0.0966194 107.43L0.0969923 107.45V107.45L0.0977476 107.47L0.0981205 107.489L0.0987515 107.509V107.51L0.0991243 107.529L0.0998796 107.549L0.100252 107.569V107.569L0.100883 107.589L0.101256 107.609L0.102012 107.628L0.102757 107.648L0.103006 107.669L0.103761 107.688L0.104134 107.708L0.104889 107.728L0.105138 107.748L0.105893 107.768L0.106266 107.788L0.107021 107.807L0.107643 107.827L0.108025 107.847L0.108771 107.867L0.109153 107.887L0.109775 107.907L0.110148 107.926L0.110903 107.946L0.111907 107.966L0.11228 107.986L0.113035 108.006L0.113408 108.026L0.114039 108.045L0.114412 108.065L0.115167 108.086L0.11554 108.105L0.116171 108.125L0.141105 109.009L0.141478 109.026L0.142109 109.043L0.142482 109.06L0.143237 109.077L0.14361 109.094L0.144241 109.111L0.144614 109.129L0.145369 109.146L0.145742 109.163L0.146363 109.18L0.147119 109.197L0.147491 109.214L0.148122 109.231L0.148495 109.248L0.149251 109.265L0.149623 109.282L0.150254 109.299L0.151 109.316L0.151383 109.333L0.152511 109.351L0.152759 109.368L0.153515 109.385L0.15426 109.402L0.154643 109.419L0.155264 109.436L0.156019 109.453L0.156392 109.47V109.47L0.157023 109.488L0.157769 109.505L0.158151 109.522L0.158897 109.539L0.159528 109.556L0.159901 109.573L0.160656 109.59L0.161278 109.607L0.16166 109.624L0.162406 109.641L0.163161 109.658L0.16341 109.675V109.676L0.164165 109.693L0.164911 109.71L0.165542 109.727L0.165915 109.744L0.16667 109.761L0.167416 109.778L0.167674 109.795L0.16842 109.812L0.169175 109.829V109.83L0.169548 109.846V109.847L0.170179 109.864L0.170924 109.881L0.17168 109.898L0.171928 109.915L0.173056 109.932L0.173812 109.949L0.17406 109.966L0.174816 109.983L0.175561 110.001V110.001L0.176192 110.018V110.018L0.176565 110.035L0.17732 110.052L0.178076 110.069L0.178324 110.086L0.17907 110.103L0.179825 110.121L0.180198 110.139L0.180829 110.157L0.181585 110.175L0.18233 110.193L0.182579 110.211L0.183334 110.229L0.184089 110.247L0.184711 110.265L0.185093 110.283L0.185839 110.301L0.186594 110.319L0.188344 110.372L0.188975 110.39L0.214664 111.09L0.215286 111.109L0.217045 111.163L0.2178 111.181L0.218546 111.198L0.219177 111.217L0.219923 111.234L0.220678 111.252L0.26153 112.224C0.279199 112.633 0.29662 113.04 0.316169 113.45L0.363781 114.409L0.364909 114.429L0.365913 114.449L0.366668 114.47L0.367672 114.489L0.3688 114.51L0.369804 114.53L0.370932 114.55L0.371927 114.57L0.372682 114.59L0.373686 114.61L0.374814 114.63L0.376191 114.65L0.377319 114.67L0.378323 114.69L0.379451 114.711L0.380196 114.731L0.3812 114.75L0.382328 114.771L0.383332 114.791L0.38446 114.811L0.385464 114.831L0.386592 114.851L0.387596 114.871L0.388342 114.892L0.389346 114.911L0.390474 114.932L0.391478 114.952L0.392606 114.972L0.39361 114.992L0.394738 115.012L0.396115 115.032L0.397243 115.052L0.398247 115.073L0.399375 115.093L0.400379 115.113L0.401507 115.133L0.402128 115.153L0.402511 115.161C0.410656 115.339 0.421308 115.517 0.431709 115.696L0.484589 116.607L0.564917 117.911L0.626315 118.848C0.655764 119.288 0.687346 119.729 0.719426 120.171L0.786465 121.073C0.822053 121.539 0.85927 122.005 0.897741 122.471L0.964531 123.276C1.00927 123.803 1.05652 124.33 1.10514 124.857L1.16479 125.513C1.21667 126.06 1.27142 126.608 1.32681 127.156L1.3911 127.794L1.41491 128.03L1.42093 128.068C1.60526 129.817 1.80876 131.571 2.03408 133.327L4.2872 146.522C4.48545 147.491 4.68219 148.427 4.88006 149.336ZM10.7738 113.293C10.0012 93.874 11.3325 74.1855 14.5107 55.0222C14.5107 54.5469 15.0275 51.8533 15.0304 51.8384H15.0385L15.0925 51.5112H15.0986L15.2705 50.5059H15.2879C15.3991 49.8759 15.523 49.2151 15.6559 48.5881L15.6523 48.5875C15.8581 47.5424 16.0527 46.493 16.2512 45.4459H16.2779L16.5404 44.0676H16.7116C17.2115 42.4425 17.8891 40.8874 18.7879 39.4409C22.2211 33.463 27.5305 30.6614 33.9503 28.8427C54.9184 22.847 76.3469 17.9634 98.0631 15.6662C96.5349 19.6109 94.8984 22.3045 94.8924 22.3053C74.8375 24.7137 55.0637 29.3166 35.6627 34.8604H35.6503C30.791 36.2354 26.6524 38.1437 24.099 42.7452C23.1631 44.2513 22.5944 45.9716 22.2107 47.6944L22.2058 47.7501L22.2097 47.7509C22.0364 48.6176 21.8705 49.4869 21.7049 50.356H21.6893L21.4242 51.7688H21.4203C21.3781 51.9833 21.3423 52.2089 21.3042 52.4263L21.2974 52.4252L20.4058 57.7773H20.3984C18.0213 72.4755 16.8182 86.6581 16.8146 101.554C13.8681 105.104 12.3499 108.683 11.2981 112.229L10.7738 113.293Z" fill="#BA1319"/>
<path d="M179.768 7.06914L181.344 8.47267C186.484 13.5923 192.73 21.9244 196.081 28.6831C199.852 32.805 206.983 38.574 203.729 49.3492C203.729 54.7284 200.098 59.854 197.954 63.3927C196.943 65.0612 197.246 65.281 196.858 67.2546C196.179 70.7073 193.799 85.6624 191.474 88.368C190.648 89.3293 189.848 89.8711 188.591 90.4276C184.051 92.4375 185.623 95.4454 184.085 99.3283C182.862 102.416 183.251 103.421 181.824 105.57L189.16 114.609C192.123 117.597 191.993 119.27 194.283 122.978C197.92 128.867 201.374 139.364 201.374 148.857C201.374 154.477 201.598 161.536 199.716 166.404C198.382 169.852 197.308 172.69 195.892 176.175L187.861 193.838C186.881 196.554 187.03 195.161 189.279 196.784L192.359 199.389C193.726 200.767 192.622 201.018 193.95 202.35C194.712 203.115 196.101 204.051 197.081 204.656C199.551 206.18 201.805 207.082 204.448 208.402C207.169 209.76 208.796 211.193 210.525 213.449C211.159 214.275 211.594 216.066 211.95 218.348L212.344 217.991V217.991L212.965 217.425L212.966 217.424L213.584 216.856V216.855L214.2 216.285L214.2 216.284L214.813 215.711V215.71L215.423 215.134L215.424 215.134L216.031 214.555H216.031L216.636 213.974L216.636 213.974L217.238 213.391V213.39L217.837 212.805V212.804L218.432 212.216L218.433 212.216L219.025 211.625V211.625L219.614 211.032L219.614 211.032L220.199 210.437L220.2 210.436L220.782 209.838V209.838L221.36 209.239L221.361 209.238L221.936 208.636L222.507 208.031L223.075 207.424V207.423L223.638 206.814V206.814L224.198 206.203V206.202L224.754 205.589L225.305 204.972L225.852 204.354L226.396 203.734C226.756 203.32 227.113 202.904 227.468 202.486V202.486L227.998 201.859L228.523 201.229L229.043 200.598V200.598L229.559 199.965L230.069 199.329H230.07L230.575 198.691L231.075 198.052L231.571 197.41L232.062 196.766L232.547 196.12L233.027 195.472L233.501 194.822L233.97 194.171C234.125 193.953 234.28 193.735 234.433 193.517L234.891 192.861C235.042 192.642 235.193 192.422 235.342 192.203L235.788 191.543L235.824 191.489C236.102 191.075 236.376 190.659 236.646 190.242L236.657 190.226C239.813 185.36 242.483 180.343 244.513 175.197L244.544 175.119L244.575 175.04L244.606 174.961H244.607C245.091 173.727 245.549 172.497 245.984 171.269H245.985L246.095 170.956H246.095L246.123 170.877H246.123L246.177 170.721H246.178L246.205 170.642L246.232 170.564H246.232L246.259 170.486H246.259L246.287 170.408L246.314 170.329L246.34 170.251V170.251L246.368 170.172L246.393 170.099L246.443 169.951L246.502 169.781L246.519 169.729L246.594 169.508L246.609 169.464L246.669 169.286L246.716 169.146L246.743 169.065L246.817 168.844L246.822 168.829L246.89 168.622L246.926 168.511L247.03 168.194L247.035 168.179L247.107 167.958L247.133 167.877L247.179 167.737L247.235 167.559L247.249 167.516L247.32 167.295L247.337 167.242L247.39 167.074L247.436 166.925L247.46 166.853L247.529 166.631L247.536 166.609L247.597 166.41L247.634 166.292L247.666 166.189L247.732 165.974L247.734 165.968L247.801 165.748L247.828 165.658L247.924 165.341L247.935 165.306L248.001 165.085L248.019 165.024L248.067 164.864L248.113 164.708L248.132 164.643L248.197 164.422L248.206 164.391L248.262 164.201L248.299 164.074L248.326 163.98L248.39 163.759L248.39 163.758L248.453 163.538L248.481 163.441L248.516 163.318L248.571 163.124L248.579 163.097L248.641 162.876L248.66 162.807L248.702 162.655L248.748 162.491L248.764 162.435L248.825 162.214L248.835 162.175L248.885 161.993L248.922 161.858L248.946 161.772L249.006 161.552L249.008 161.541L249.066 161.331L249.094 161.225L249.125 161.11L249.178 160.908L249.183 160.889L249.242 160.668L249.262 160.592L249.3 160.448L249.345 160.275L249.357 160.227L249.415 160.006L249.428 159.959L249.472 159.785L249.509 159.642L249.529 159.564L249.585 159.343L249.59 159.325L249.641 159.122L249.67 159.008L249.697 158.901L249.75 158.692L249.752 158.681L249.807 158.459L249.828 158.375L249.862 158.239L249.906 158.058L249.916 158.018L249.97 157.796L249.984 157.741L250.024 157.576L250.061 157.424L250.078 157.354L250.13 157.134L250.137 157.107L250.183 156.912L250.212 156.79L250.236 156.691L250.287 156.474L250.288 156.47L250.34 156.249L250.362 156.156L250.392 156.028L250.395 156.01L250.4 155.992L250.404 155.974L250.408 155.956L250.412 155.939L250.421 155.903L250.425 155.885C250.494 155.588 250.562 155.291 250.629 154.994L250.633 154.976L250.637 154.958L250.641 154.94L250.645 154.922L250.649 154.904L250.653 154.887C251.333 152.281 251.942 149.565 252.563 146.524L254.817 133.328C255.042 131.572 255.246 129.818 255.43 128.069L255.436 128.031L255.46 127.795L255.524 127.158C255.58 126.609 255.634 126.061 255.686 125.514L255.746 124.858C255.794 124.331 255.842 123.804 255.886 123.277L255.953 122.473C255.991 122.006 256.029 121.54 256.064 121.074L256.131 120.172C256.163 119.73 256.195 119.29 256.225 118.849L256.286 117.913L256.366 116.608L256.419 115.698C256.43 115.519 256.44 115.341 256.448 115.162L256.449 115.154L256.449 115.134L256.45 115.114L256.452 115.094L256.453 115.074L256.454 115.053L256.455 115.033L256.456 115.014L256.457 114.993L256.458 114.973L256.459 114.953L256.46 114.933L256.461 114.913L256.463 114.893L256.463 114.873L256.464 114.853L256.465 114.832L256.466 114.812L256.467 114.792L256.469 114.772L256.47 114.752L256.471 114.732L256.472 114.712L256.472 114.692L256.474 114.672L256.475 114.652L256.476 114.631L256.477 114.612L256.478 114.591L256.479 114.571L256.48 114.551L256.481 114.531L256.482 114.511L256.483 114.491L256.484 114.471L256.485 114.451L256.486 114.43L256.487 114.41L256.535 113.451C256.554 113.042 256.572 112.634 256.589 112.225L256.63 111.254L256.631 111.235L256.632 111.218L256.632 111.2L256.633 111.182L256.634 111.164L256.636 111.11L256.636 111.092L256.662 110.391L256.663 110.373L256.664 110.32L256.665 110.302L256.666 110.284L256.666 110.266L256.667 110.248L256.667 110.23L256.668 110.212L256.669 110.194L256.669 110.176L256.67 110.159L256.671 110.14L256.671 110.122L256.672 110.105L256.673 110.087L256.673 110.07L256.674 110.053L256.674 110.036L256.675 110.019V110.019L256.675 110.002V110.002L256.676 109.985L256.677 109.968L256.677 109.951L256.678 109.933L256.679 109.916L256.679 109.899L256.68 109.882L256.68 109.865L256.681 109.848V109.848L256.682 109.831V109.831L256.682 109.814L256.683 109.797L256.684 109.779L256.684 109.762L256.685 109.745L256.685 109.728L256.686 109.711L256.687 109.694L256.687 109.677V109.676L256.688 109.659L256.689 109.642L256.689 109.625L256.69 109.608L256.69 109.591L256.691 109.574L256.691 109.557L256.692 109.54L256.693 109.523L256.693 109.506L256.694 109.489L256.695 109.471V109.471L256.695 109.454L256.696 109.437L256.696 109.42L256.697 109.403L256.697 109.386L256.698 109.369L256.698 109.352L256.699 109.335L256.699 109.318L256.7 109.301L256.701 109.284L256.701 109.267L256.702 109.25L256.703 109.232L256.703 109.215L256.704 109.198L256.704 109.181L256.705 109.164L256.706 109.147L256.706 109.13L256.707 109.113L256.707 109.096L256.708 109.079L256.708 109.062L256.709 109.045L256.709 109.027L256.71 109.01L256.735 108.126L256.735 108.106L256.736 108.087L256.736 108.067L256.737 108.047L256.738 108.027L256.738 108.007L256.739 107.987L256.739 107.968L256.74 107.948L256.74 107.928L256.741 107.908L256.741 107.888L256.742 107.868L256.743 107.849L256.743 107.829L256.744 107.808L256.745 107.789L256.745 107.769L256.746 107.749L256.746 107.729L256.747 107.709L256.747 107.689L256.748 107.67L256.748 107.65L256.749 107.63L256.75 107.61L256.75 107.59L256.751 107.57V107.57L256.751 107.551L256.752 107.531L256.752 107.511V107.511L256.753 107.491L256.753 107.471L256.754 107.451V107.451L256.754 107.431L256.755 107.411L256.756 107.392V107.391L256.756 107.372L256.757 107.352V107.352L256.757 107.332L256.758 107.312L256.758 107.293V107.292L256.758 107.273L256.759 107.253V107.252L256.76 107.233L256.76 107.213L256.761 107.194V107.193L256.761 107.173L256.762 107.154V107.153L256.762 107.134L256.763 107.114V107.114L256.764 107.094L256.764 107.074V107.074L256.764 107.055L256.765 107.035L256.766 107.015L256.766 106.995L256.767 106.975L256.767 106.956L256.768 106.936L256.768 106.916L256.768 106.896L256.769 106.876L256.769 106.857L256.785 106.094L256.785 106.073L256.786 106.051L256.787 106.031L256.787 106.01L256.787 105.988L256.788 105.967L256.788 105.946L256.789 105.925L256.789 105.904L256.789 105.883L256.79 105.862L256.79 105.841L256.791 105.82L256.791 105.799L256.792 105.778L256.792 105.757L256.793 105.735L256.793 105.714L256.793 105.693L256.795 105.63L256.795 105.609L256.807 104.999L256.808 104.978L256.808 104.957L256.809 104.936L256.809 104.915L256.809 104.894L256.81 104.873L256.81 104.852L256.81 104.831L256.811 104.81L256.811 104.789L256.811 104.768L256.812 104.747L256.812 104.714L256.813 104.683L256.813 104.65L256.814 104.618L256.814 104.586L256.815 104.554L256.815 104.522L256.816 104.49L256.816 104.457L256.817 104.425L256.817 104.393H256.817L256.818 104.361L256.818 104.329V104.329L256.818 104.297H256.819L256.819 104.265V104.264L256.82 104.232L256.82 104.2H256.82L256.821 104.168L256.821 104.136L256.821 104.104V104.104L256.822 104.072L256.822 104.04L256.823 104.008L256.823 103.976H256.824L256.824 103.944L256.825 103.911L256.825 103.879L256.825 103.847L256.826 103.815H256.826L256.826 103.783L256.827 103.751L256.827 103.719L256.827 103.687L256.828 103.655H256.828V103.623H256.828V103.591H256.829L256.829 103.559L256.83 103.527L256.83 103.495L256.83 103.463L256.831 103.431L256.831 103.399V103.398L256.831 103.366L256.832 103.334H256.832V103.302H256.832V103.27H256.833V103.239H256.833V103.207L256.833 103.206V103.175L256.834 103.174V103.143L256.834 103.142V103.11H256.835V103.078H256.835V103.046L256.835 103.014L256.836 102.982L256.836 102.95L256.836 102.918L256.837 102.887L256.837 102.855L256.837 102.823V102.791H256.838V102.759L256.838 102.727L256.838 102.695L256.839 102.673V102.651L256.839 102.63V102.608V102.608V102.587H256.839V102.565V102.543H256.84V102.522V102.501H256.84V102.479V102.479V102.457H256.841V102.436V102.414V102.414L256.841 102.393V102.371V102.35L256.841 102.349V102.328V102.307L256.842 102.285V102.264V102.263V102.242H256.842V102.22V102.199L256.842 102.178V102.177V102.156V102.156V102.135L256.843 102.113V102.092V102.07V102.07L256.843 102.049V102.048V102.027V102.006L256.843 101.984V101.963V101.962V101.941V101.941L256.844 101.919V101.898V101.877L256.844 101.855V101.855V101.834V101.833V101.812V101.812V101.79H256.845V101.769V101.748V101.726H256.845V101.726V101.705V101.704V101.683V101.683V101.661V101.64H256.846V101.618V101.597V101.576H256.846V101.575V101.554V101.554V101.533V101.532V101.511V101.489H256.846V101.468V101.447V101.425H256.847V101.404V101.403V101.382V101.36L256.847 101.339V101.318L256.851 100.568L256.85 99.3802L256.848 98.457V98.4374V98.4182L256.848 98.3987V98.3792V98.3596L256.848 98.3404V98.3213V98.3209V98.3017V98.2821V98.2818L256.847 98.2626V98.2434V98.2431V98.2239L256.847 98.2047V98.204V98.1848V98.1656V98.1465V98.1461L256.847 98.1269V98.1073V98.1071V98.0882V98.0879L256.846 98.0686V98.0494V98.0492V98.0299L256.846 98.0105V98.0101V97.9913V97.9909L256.846 97.9718V97.9526V97.9522V97.9333V97.9326L256.845 97.9135V97.8943V97.8939V97.8751V97.8748L256.845 97.8556V97.836V97.8357L256.844 97.8169V97.8165V97.7977V97.7973V97.7781V97.7778L256.844 97.759V97.7586V97.7394V97.7391L256.843 97.7199V97.7007V97.7003V97.6815V97.6812L256.843 97.662V97.6424L256.843 97.6233V97.6229V97.6041V97.6037V97.5845L256.842 97.565V97.5646V97.5458V97.5454L256.842 97.5267V97.5263V97.5071L256.842 97.4879V97.4875V97.4684V97.468L256.841 97.4488V97.4296V97.4105V97.4101L256.841 97.3913V97.3909V97.3714L256.841 97.3522V97.333V97.3327L256.84 97.3135V97.294L256.84 97.2748V97.2556V97.2552L256.839 97.2361V97.2169L256.832 96.4269L256.814 95.0824L256.803 94.3932L256.803 94.3719L256.802 94.3514L256.802 94.3304L256.801 94.3094L256.801 94.2884L256.801 94.2675L256.784 93.3916L256.783 93.3709L256.781 93.2874L256.781 93.2669L256.781 93.2458L256.78 93.2253L256.779 93.1834L256.779 93.1627L256.778 93.1418L256.778 93.1213L256.777 93.1002L256.777 93.0793L256.777 93.0588L256.761 92.3685L256.728 91.0738L256.706 90.3114L256.664 89.0352L256.643 88.4253L256.591 87.0633L256.564 86.4094L256.509 85.153L256.475 84.4393L256.474 84.4198L256.473 84.4003L256.472 84.3803L256.471 84.3605L256.47 84.341L256.469 84.3214L256.468 84.3015L256.467 84.282L256.466 84.2624L256.465 84.2429L256.464 84.2231L256.463 84.1836L256.461 84.164L256.46 84.1246L256.458 84.1051L256.418 83.2827L256.417 83.2629L256.416 83.2434L256.415 83.2238L256.414 83.2046L256.413 83.1847L256.392 82.8008L256.385 82.6629L256.377 82.5251L256.37 82.3873L256.362 82.2498L256.355 82.1123L256.347 81.9752L256.34 81.8381V81.8377L256.332 81.7006L256.324 81.5642V81.5638L256.316 81.4271L256.308 81.2908L256.301 81.1539L256.293 81.0179H256.292L256.285 80.8815H256.285L256.277 80.7454L256.269 80.6094L256.261 80.4737L256.252 80.338V80.3376L256.244 80.2027V80.2023L256.236 80.0669H256.236L256.228 79.9316L256.22 79.7963L256.211 79.6617H256.211L256.203 79.5267V79.5263L256.194 79.392L256.186 79.257L256.177 79.1228H256.177L256.168 78.9881L256.16 78.8543L256.151 78.7203L256.143 78.5864L256.134 78.4525H256.133L256.125 78.3193L256.116 78.1854H256.116L256.107 78.0522L256.098 77.919L256.089 77.7857H256.089L256.08 77.6533H256.08L256.071 77.5201H256.071L256.062 77.3876L256.053 77.2554V77.255L256.044 77.123H256.043L256.035 76.9908V76.9904L256.025 76.8587L256.016 76.7269H256.016L256.006 76.5954L256.006 76.5948L255.997 76.4633H255.997L255.988 76.3319H255.987L255.978 76.2008L255.969 76.0697L255.959 75.9383H255.959L255.949 75.8076L255.94 75.6769L255.93 75.5465H255.93L255.921 75.4161H255.92L255.911 75.2858L255.91 75.2854L255.901 75.1554H255.901L255.891 75.0257V75.0254L255.881 74.8958L255.871 74.7661L255.861 74.6368L255.852 74.5074H255.851L255.841 74.3781L255.831 74.2489L255.822 74.1221L255.82 74.0972L255.818 74.0727L255.816 74.0482C255.782 73.6152 255.746 73.1843 255.711 72.7559L255.709 72.7314L255.707 72.7072L255.705 72.6828L255.703 72.659L255.701 72.6344L255.699 72.6102L255.697 72.5861L255.695 72.562L255.68 72.3794L255.679 72.3577L255.677 72.336L255.675 72.3144L255.673 72.2927L255.672 72.271L255.67 72.2491L255.668 72.2334L255.667 72.2177L255.665 72.2021L255.664 72.1869L255.663 72.1713L255.662 72.1556L255.66 72.1399L255.659 72.1244L255.658 72.1087L255.657 72.0934L255.655 72.0778H255.655L255.654 72.0622L255.653 72.0469L255.652 72.0313L255.65 72.016L255.649 72.0003L255.647 71.9848L255.646 71.9691L255.645 71.9538H255.645L255.643 71.9382L255.642 71.9226L255.641 71.9073H255.641L255.64 71.8917L255.638 71.876L255.637 71.8603H255.637L255.636 71.8452L255.634 71.8295L255.633 71.8138H255.633L255.632 71.7986L255.63 71.783L255.629 71.7674H255.629L255.628 71.7521L255.626 71.7364L255.625 71.7208L255.624 71.7056H255.623L255.622 71.6899L255.621 71.6743L255.62 71.659H255.619L255.618 71.6434L255.617 71.6278L255.616 71.6125H255.615L255.614 71.5968H255.614L255.613 71.5811L255.611 71.566L255.61 71.5503H255.61L255.609 71.535H255.609L255.608 71.5194L255.606 71.5037L255.605 71.4888H255.604L255.603 71.4733H255.603L255.602 71.4576L255.6 71.4423L255.599 71.4266H255.599L255.598 71.4111H255.598L255.597 71.3958L255.595 71.3801L255.594 71.3649H255.594L255.593 71.3492H255.592L255.591 71.3337L255.59 71.3184L255.588 71.3027L255.587 71.2871H255.587L255.586 71.2718L255.584 71.2562L255.582 71.2349L255.581 71.2132L255.575 71.1486L255.573 71.1273L255.571 71.106L255.569 71.0843L255.568 71.063L255.565 71.0417L255.563 71.02L255.562 70.9987L255.526 70.5919L255.419 69.402L255.366 68.83L255.264 67.7601L255.205 67.1612L255.089 65.9936L255.057 65.6925L255.055 65.6712L255.053 65.6501L255.051 65.6284L255.049 65.6075L255.047 65.5862L255.045 65.5649L255.033 65.4586L255.031 65.4373L255.029 65.4164L255.027 65.3951L255.025 65.3738L254.934 64.5091L254.932 64.4882L254.93 64.4676L254.928 64.4463L254.926 64.4254L254.923 64.4047L254.921 64.3834L254.919 64.3629L254.916 64.3418L254.9 64.1898L254.898 64.1682L254.895 64.1465L254.893 64.1248L254.891 64.1035L254.889 64.0816L254.886 64.0601L254.884 64.0386L254.882 64.0169V64.0165L254.88 63.9952H254.879L254.877 63.9739L254.875 63.9519L254.872 63.9306L254.87 63.9089L254.868 63.8872L254.865 63.8655L254.863 63.8442H254.863L254.861 63.8225L254.859 63.8009L254.856 63.7792L254.854 63.7579L254.851 63.7362L254.849 63.7145L254.847 63.6932H254.847L254.845 63.6719V63.6715L254.84 63.6285L254.838 63.6072H254.837L254.835 63.5856L254.833 63.5643V63.5639L254.83 63.543V63.5426L254.828 63.5213V63.521L254.826 63.4996H254.826L254.824 63.4783L254.821 63.4566H254.821L254.819 63.4353L254.817 63.414H254.816L254.814 63.3923L254.812 63.371H254.811L254.809 63.3497L254.807 63.328H254.807L254.805 63.3067L254.8 63.2641V63.2638L254.795 63.2215V63.2208L254.793 63.1999H254.793L254.791 63.1786L254.788 63.1569H254.788L254.786 63.1359V63.1356L254.781 63.093L254.779 63.0717H254.779L254.777 63.0506V63.0504L254.774 63.0291L254.772 63.0076L254.769 62.9867V62.9863L254.767 62.965L254.765 62.9437L254.762 62.9228L254.76 62.9011L254.758 62.8802V62.8798L254.755 62.8589L254.753 62.8376V62.8372L254.75 62.8163L254.727 62.6066L254.709 62.4453L254.691 62.2844V62.2841L254.673 62.1236L254.655 61.9634L254.637 61.8035L254.618 61.644L254.6 61.4852V61.4848L254.582 61.3264V61.3261L254.564 61.168L254.545 61.0099L254.527 60.8526V60.8522L254.508 60.6956V60.6952L254.49 60.5386H254.49L254.472 60.3826L254.453 60.2267V60.2263L254.416 59.9159L254.398 59.7614L254.379 59.6071V59.6069L254.361 59.453H254.36L254.342 59.2996L254.324 59.1465L254.305 58.9941L254.286 58.8417L254.267 58.69L254.249 58.5383H254.248L254.23 58.3877L254.212 58.2367L254.193 58.0868H254.193L254.174 57.937L254.174 57.9366L254.155 57.7877V57.7874L254.137 57.639V57.6386L254.118 57.4901L254.099 57.342L254.08 57.1945L254.061 57.0475V57.0471L254.042 56.9004V56.9001L254.024 56.7541V56.7538L254.005 56.608V56.6078L253.986 56.4628V56.4624L253.968 56.3176V56.3172L253.949 56.1729L253.948 56.1726L253.93 56.0287L253.93 56.0283L253.911 55.8848L253.911 55.8845L253.892 55.7417V55.7414L253.873 55.5985V55.5983L253.854 55.4561V55.4558L253.835 55.314L253.835 55.3137L253.816 55.1723L253.816 55.1719L253.797 55.031V55.0306L253.779 54.8906V54.8899L253.76 54.7503V54.7499L253.741 54.6103L253.741 54.61L253.722 54.4707L253.722 54.4704L253.703 54.3319V54.3311L253.684 54.1934V54.193L253.666 54.0552V54.0548L253.647 53.9177V53.9173L253.628 53.7802H253.628L253.609 53.6435V53.6431L253.59 53.507L253.571 53.3709L253.552 53.236V53.2356L253.533 53.1006L253.521 53.0058L253.515 52.9692L253.51 52.9326L253.505 52.8964L253.5 52.8594L253.495 52.8232V52.8229L253.49 52.7866L253.485 52.75L253.479 52.7138L253.474 52.6776V52.6772L253.469 52.6414V52.641L253.464 52.6048V52.6044L253.459 52.5686L253.454 52.5324H253.453L253.449 52.4961V52.4958L253.444 52.4598L253.439 52.4239V52.4236L253.433 52.3877L253.428 52.3515L253.423 52.3157H253.423L253.418 52.2797L253.413 52.2439L253.408 52.2077L253.403 52.1721V52.1719L253.398 52.1362L253.392 52.1004H253.392L253.387 52.0646H253.387L253.377 51.9931L253.372 51.9575L253.367 51.9221L253.362 51.8863L253.357 51.8507L253.352 51.8152H253.351L253.347 51.78H253.346L253.342 51.7441H253.341L253.336 51.7089L253.331 51.6735L253.326 51.6383L253.321 51.603L253.316 51.5676V51.5672L253.311 51.5324L253.31 51.532L253.306 51.4973L253.305 51.4969L253.301 51.4621H253.3L253.295 51.4265H253.295L253.29 51.3914L253.285 51.3566L253.28 51.3213L253.275 51.2866L253.27 51.2518V51.2511L253.265 51.2162L253.26 51.1815L253.255 51.1466H253.254L253.25 51.1118H253.249L253.245 51.0774L253.244 51.077L253.24 51.0421H253.239L253.234 51.0074H253.234L253.229 50.973V50.9726L253.224 50.9381L253.219 50.9037L253.214 50.8688L253.209 50.834L253.204 50.7995L253.199 50.7651L253.194 50.7306L253.156 50.4735L253.03 49.6337L252.974 49.2647L252.836 48.3642L252.826 48.2953L252.813 48.2107L252.8 48.1269V48.1266L252.786 48.0424L252.773 47.959L252.76 47.8755L252.747 47.7923L252.734 47.7096L252.721 47.6264L252.708 47.544L252.695 47.462H252.695L252.682 47.3803V47.3799L252.67 47.2985L252.656 47.2172V47.2169L252.644 47.1359L252.631 47.0552L252.618 46.9746H252.618L252.605 46.8939L252.592 46.8137L252.579 46.7341V46.7338L252.567 46.6546L252.554 46.575L252.541 46.4964H252.541L252.529 46.4176H252.529L252.516 46.3392H252.516L252.503 46.261H252.503L252.491 46.1827H252.491L252.478 46.1053L252.478 46.1051L252.466 46.028V46.0276L252.453 45.9506L252.44 45.8741L252.44 45.8737L252.428 45.7974L252.415 45.721L252.403 45.6451V45.6447L252.39 45.569L252.378 45.4937L252.366 45.4184H252.365L252.353 45.3434H252.353L252.341 45.2692L252.341 45.2689L252.329 45.1946V45.1943L252.316 45.1204V45.12L252.304 45.0468L252.304 45.0464L252.292 44.973H252.292L252.28 44.9002L252.279 44.8998L252.268 44.827V44.8266L252.255 44.7542L252.255 44.7538L252.243 44.6817L252.231 44.6096L252.231 44.6092L252.219 44.5378V44.5374L252.207 44.4661L252.207 44.4657L252.195 44.3951L252.195 44.3947L252.183 44.3236L252.171 44.2533V44.253L252.159 44.1829V44.1826L252.151 44.1346C251.633 41.3199 251.267 39.5705 251.167 39.1012C248.012 26.0402 242.328 22.1584 232.038 19.1483C213.335 13.8417 195.556 9.65835 179.768 7.06914ZM204.246 201.191C204.618 200.832 205.018 200.403 205.307 200.119L205.301 200.113C205.339 200.112 206.238 199.191 206.344 199.085L206.338 199.079L206.857 198.554L206.863 198.56C208.713 196.673 210.49 194.757 212.232 192.77L212.238 192.774C213.167 191.705 214.068 190.623 214.966 189.527L214.97 189.531C215.41 188.986 215.843 188.438 216.275 187.887L216.279 187.89C216.706 187.34 217.126 186.787 217.544 186.23L217.548 186.233L218.77 184.557L218.773 184.56L219.169 184.004L219.172 184.007C222.61 179.098 225.548 174.013 227.78 168.434L227.774 168.431C228.599 166.329 229.348 164.236 230.049 162.085L230.053 162.086L230.185 161.675L230.178 161.672L230.287 161.328L230.29 161.329L230.47 160.755L230.473 160.756L230.53 160.559L230.537 160.561L230.704 160.001L230.696 159.999C230.819 159.593 230.948 159.188 231.067 158.781L231.063 158.78C231.097 158.689 231.123 158.595 231.152 158.501L231.144 158.499L231.211 158.295L231.2 158.292L231.248 158.121L231.255 158.123C231.257 158.039 231.43 157.498 231.467 157.368L231.462 157.366L231.68 156.6L231.675 156.599C231.793 156.154 231.907 155.703 232.032 155.26L232.024 155.258L232.082 155.065L232.074 155.063L232.131 154.853L232.128 154.852L232.173 154.673H232.186L232.208 154.587L232.199 154.585L232.613 152.918L232.619 152.919L232.651 152.785L232.642 152.783L232.7 152.578L232.689 152.575L232.827 152.002L232.833 152.003L232.853 151.879L232.858 151.881C232.933 151.561 233.004 151.239 233.084 150.921C233.7 148.567 234.231 146.176 234.722 143.793L234.718 143.793L236.717 132.14L236.722 132.141C238.381 119.205 238.882 105.556 238.362 91.8975C237.822 77.7083 236.169 63.4972 233.559 50.0533C233.059 47.4709 232.609 45.0098 231.204 42.7464C228.651 38.1453 224.511 36.2371 219.652 34.8617H219.64C215.086 33.5605 210.513 32.3113 205.919 31.1302C205.783 30.8392 205.638 30.5494 205.482 30.2617C204.213 27.9247 204.545 27.9513 202.588 24.7327C202.364 24.3643 202.149 24.0162 201.939 23.6862C208.441 25.2687 214.912 27 221.354 28.8407C227.774 30.6677 233.08 33.46 236.514 39.4429C238.319 42.3387 238.998 45.2315 239.64 48.5571C242.396 62.7931 244.051 77.1873 244.603 91.6773C245.137 105.693 244.615 119.727 242.897 133.058L240.861 144.943C240.343 147.462 239.79 149.956 239.14 152.445C239.105 152.626 238.947 153.183 238.947 153.323L238.94 153.355L238.932 153.353C238.901 153.565 238.831 153.806 238.783 154.02H238.771L238.754 154.092L238.762 154.094C238.734 154.211 238.692 154.311 238.678 154.435L238.672 154.433C238.529 155.029 238.384 155.622 238.231 156.212L238.243 156.215L238.19 156.409L238.193 156.41L238.117 156.671L238.126 156.674C238.03 157.05 237.935 157.464 237.815 157.828L237.82 157.829L237.511 158.946L237.516 158.947C237.432 159.18 237.367 159.636 237.269 159.81L237.22 160.006H237.208L237.181 160.1L237.189 160.102L237.126 160.294L237.134 160.296C236.964 160.806 236.828 161.34 236.671 161.853L236.667 161.852C236.651 161.903 236.506 162.427 236.497 162.424C236.475 162.494 235.896 164.384 235.859 164.419L235.866 164.421L235.73 164.808L235.741 164.812L235.681 164.994L235.673 164.992L235.479 165.579L235.476 165.578C235.444 165.711 235.379 165.887 235.332 166.022L235.329 166.02L235.253 166.23L235.249 166.228C234.967 167.04 234.701 167.865 234.425 168.681H234.399L234.277 169.026H234.272L234.175 169.303H234.138L233.649 170.579L233.653 170.581L233.626 170.65L233.622 170.648L232.866 172.563H232.826C231.021 176.773 228.806 180.775 226.306 184.611C226.016 185.057 225.306 186 225.091 186.43L223.836 188.229C222.62 189.911 221.368 191.555 220.064 193.17C220.064 193.308 216.497 197.388 215.765 198.219C215.765 198.281 212.679 201.551 212.217 202.022C212.217 202.065 210.376 204.014 210.231 204.163L210.227 204.16L210.141 204.246C208.136 202.936 206.504 201.481 204.246 201.191Z" fill="#808285"/>
<path d="M121.512 88.9998C120.162 85.6225 119.563 82.2437 119.611 78.9124C121.744 78.9906 122.868 77.0002 123.069 75.7464C123.417 73.5821 121.723 70.8942 122.205 68.7127C123.051 64.8725 125.494 61.4898 128.311 58.1464C128.87 57.5021 129.612 56.8939 130.444 56.3578C131.437 51.9819 128.654 47.6832 123.84 49.1239C120.796 50.0361 119.302 53.2555 118.479 57.8121C119.386 57.5844 121.784 55.1996 123.309 54.4259C124.403 53.8718 125.038 54.2191 124.546 55.5931C123.411 58.7701 121.184 57.8512 119.736 61.3104C118.746 63.6697 118.528 65.9608 118.694 68.3618C122.206 75.8871 117.48 78.0194 115.613 72.0482C114.828 69.5354 115.774 63.7219 116.079 59.2782C116.487 53.3148 116.572 49.309 121.123 46.2477C126.936 42.34 114.829 41.8242 112.587 41.2058C110.206 40.55 109.84 39.6162 110.903 39.1327C128.142 31.282 118.641 29.7969 115.357 27.5345C112.743 25.7339 114.848 23.8566 117.179 23.9432C123.393 24.745 122.855 13.9524 133.188 9.17475C140.417 5.83178 161.16 10.597 168.066 16.0659C176.869 23.0378 182.108 30.7858 186.423 39.2013C187.615 41.5315 190.945 43.3524 191.072 45.7707C191.393 51.8712 186.06 58.1664 182.932 59.4462L179.58 76.4113C179.436 77.4109 179.306 78.1654 178.81 78.5807C178.14 76.0625 178.773 72.7658 176.138 77.9917C174.844 80.4938 173.346 85.3635 173.643 85.2342C173.424 86.3947 172.296 94.197 172.051 97.2235C171.562 103.262 167.913 103.905 165.306 102.339C165 102.155 162.51 99.2361 161.302 98.7797C158.97 97.8984 155.161 99.5666 150.877 100.384C150.453 100.465 150.022 100.538 149.59 100.598C148.764 100.715 147.943 100.817 147.143 100.893C145.875 101.012 144.655 101.064 143.541 100.995C138.175 100.661 135.492 99.2789 133.55 100.48C125.873 105.234 128.531 100.234 123.032 95.095L124.953 104.326C117.861 103.803 118.676 88.6753 113.778 92.7329C109.791 112.343 110.732 99.5338 101.722 115.589C95.5158 113.704 77.8476 95.0065 89.4831 109.48C97.2713 116.779 106.254 126.629 108.042 132.373C109.2 136.094 114.235 145.352 116.176 148.828C103.674 143.131 101.361 141.134 102.142 141.985C107.767 148.104 123.004 150.846 137.122 192.457C147.841 168.418 145.056 170.253 164.208 153.258C167.649 150.205 170.596 146.539 170.551 141.759C162.654 142.516 163.946 141.702 159.149 137.215C157.026 135.226 157.157 132.112 157.029 130.887C156.842 129.103 157.119 127.849 153.039 126.314C139.639 121.275 141.902 134.105 138.625 121.407L136.969 125.159C135.714 127.22 136.283 127.547 130.415 126.473C130.036 117.962 136.856 116.129 145.401 119.649C155.922 122.986 152.322 115.869 157.608 111.466C151.198 112.707 150.687 116.393 144.618 111.218C143.349 112.592 142.762 114.479 141.706 115.796C133.733 115.292 134.708 112.609 128.893 117.467C125.061 120.668 121.516 125.936 115.627 119.387C117.278 115.873 117.269 119.06 120.756 116.62C123.434 114.746 123.925 114.207 126.454 112.112C130.934 108.403 127.145 112.618 132.345 108.348C138.857 103 140.092 109.137 148.389 107.293C163.597 102.664 157.023 102.802 173.853 118.552C175.04 119.418 175.704 121.041 176.778 122.16C180.547 127.742 185.423 137.193 186.567 145.297C186.322 150.879 185.309 158.808 182.605 165.639C175.255 184.207 157.094 225.852 139.429 233.807C131.038 237.586 132.529 235.801 124.8 226.336C113.048 211.944 86.6588 197.82 78.9513 169.956C77.4971 168.352 79.9231 181.407 78.5453 179.803C76.8047 177.778 72.8807 176.325 71.2214 174.289C59.2165 159.562 48.0901 134.673 50.3002 118.837C42.1526 130.544 42.7763 137.146 42.5582 154.407C35.4671 153.04 30.9109 150.646 27.784 144.553C18.758 157.869 75.5195 208.357 73.3171 232.201C73.277 232.635 72.557 235.832 71.7595 239.329L71.8238 239.373L71.8973 239.423L71.9705 239.473V239.473L72.0441 239.524L72.1173 239.574L72.1908 239.624L72.2643 239.674L72.3372 239.724L72.4106 239.774V239.774L72.4838 239.824L72.5574 239.874L72.6305 239.924L72.7037 239.974L72.7769 240.024V240.024L72.8505 240.073V240.074L72.9233 240.123L72.9967 240.173L73.0696 240.223L73.3779 240.431L74.2933 241.049L74.765 241.365L75.6655 241.966L76.0115 242.196L77.0157 242.859L77.2022 242.981L77.2192 242.993L77.2363 243.004L77.2533 243.015L77.2704 243.026L77.2874 243.037L77.3045 243.048L77.3215 243.059L77.3386 243.071L77.3556 243.082L77.3726 243.093L77.4065 243.115L77.4235 243.126L77.5258 243.194L77.5428 243.205L78.1372 243.594L78.1542 243.605L78.1712 243.616L78.1883 243.627L78.2053 243.638L78.2216 243.649L78.2387 243.66L78.2557 243.671L78.2728 243.682L78.2899 243.693L78.3091 243.706L78.3285 243.718L78.3478 243.731L78.3672 243.744L78.3865 243.756L78.406 243.769L78.4252 243.781L79.4069 244.418L79.4262 244.43L79.4454 244.443L79.4646 244.455L79.4838 244.467L79.5029 244.479L79.5221 244.492L80.2265 244.944L80.8513 245.345L81.6374 245.845L82.1042 246.14L82.8576 246.616L83.5329 247.04L84.1424 247.42L84.7989 247.828L85.4692 248.243L85.9643 248.547L86.7347 249.02L86.7533 249.031L86.7713 249.043L86.7899 249.054L86.8083 249.065L86.8265 249.076L86.8449 249.087L86.8631 249.098L86.8815 249.109L86.8999 249.121L87.756 249.642L87.7742 249.653L87.81 249.675L87.8281 249.686L87.8466 249.697L87.8647 249.708L87.8829 249.719L87.901 249.73L88.0356 249.811L88.3539 250.003L89.1869 250.505L89.7971 250.871L90.4671 251.27L91.0361 251.608L91.7227 252.014L92.2016 252.296L92.24 252.318L92.2787 252.341L92.3171 252.363L92.3554 252.386L92.3937 252.408L92.4317 252.431H92.4321L92.4702 252.453H92.4704L92.5085 252.476H92.5089L92.5469 252.499H92.5473L92.5852 252.521H92.5856L92.6236 252.543L92.6239 252.543L92.6619 252.566H92.6623L92.7003 252.588L92.7383 252.61L92.7387 252.611L92.7763 252.633H92.7767L92.8147 252.655L92.815 252.655L92.8526 252.678H92.853L92.8911 252.7L92.8914 252.7L92.9291 252.722H92.9294L92.9674 252.744H92.9678L93.0054 252.766L93.0058 252.767L93.0439 252.789H93.0441L93.0815 252.811H93.0822L93.1194 252.834H93.1198L93.1578 252.855L93.1582 252.856L93.1959 252.878L93.1962 252.878L93.2338 252.9L93.2342 252.9L93.2718 252.922L93.2722 252.922L93.3099 252.944L93.3103 252.945L93.3479 252.966L93.3482 252.967L93.3855 252.988H93.3862L93.4236 253.011H93.4239L93.4615 253.033H93.4619L93.4995 253.054L93.4999 253.055L93.5376 253.077L93.5752 253.099H93.5756L93.6132 253.121L93.6135 253.121L93.6513 253.143L93.6885 253.164L93.6888 253.165L93.7266 253.187L93.7642 253.209L93.7645 253.209L93.8021 253.231L93.8398 253.253H93.8402L93.8778 253.274V253.275L93.9155 253.297L93.9528 253.318L93.9905 253.34H93.9908L94.0281 253.362H94.0284L94.0658 253.384H94.0662L94.1034 253.405H94.1038L94.1411 253.427H94.1415L94.1787 253.449H94.1791L94.216 253.471L94.2536 253.493L94.2914 253.514L94.3286 253.536H94.3289L94.3663 253.558L94.4039 253.579L94.4412 253.601L94.4786 253.622L94.5158 253.644L94.5531 253.666L94.5907 253.687L94.6281 253.709L94.6782 253.738C95.1588 254.015 95.6341 254.288 96.1057 254.558L96.1857 254.603C96.6464 254.867 97.1029 255.125 97.5544 255.381L97.6961 255.461L97.8279 255.536H97.8282L97.9593 255.61L98.0907 255.683L98.2214 255.757L98.3519 255.83H98.3521L98.4825 255.904L98.6125 255.977L98.7426 256.05L98.8719 256.122L99.0008 256.195L99.1298 256.267H99.1301L99.2584 256.338L99.3869 256.41L99.5148 256.481V256.482L99.6423 256.553L99.7695 256.623V256.624L99.897 256.694L100.023 256.765L100.15 256.835L100.276 256.905V256.905L100.402 256.974V256.975L100.528 257.044V257.044L100.653 257.113V257.113L100.778 257.182V257.182L100.902 257.251V257.251L101.026 257.319L101.027 257.32L101.151 257.388L101.151 257.388L101.274 257.456L101.275 257.456L101.397 257.523L101.398 257.524L101.521 257.591V257.592L101.643 257.659L101.766 257.725L101.766 257.726L101.888 257.792V257.793L102.009 257.859V257.859L102.131 257.926V257.926L102.252 257.992L102.252 257.992L102.373 258.058L102.373 258.058L102.493 258.123L102.493 258.124L102.613 258.189V258.189L102.733 258.254V258.254L102.852 258.319L102.852 258.319L102.971 258.384V258.384L103.09 258.448L103.09 258.449L103.209 258.513V258.513L103.327 258.577L103.327 258.577L103.445 258.641H103.445L103.562 258.704L103.679 258.767V258.768L103.796 258.83V258.831L103.912 258.893L103.912 258.894L104.028 258.956L104.028 258.956L104.144 259.018V259.018L104.259 259.08V259.081L104.375 259.143L104.489 259.204H104.489L104.603 259.266H104.604L104.717 259.326H104.717L104.831 259.388L104.944 259.448L105.057 259.509H105.057L105.17 259.569L105.282 259.629L105.394 259.689L105.505 259.748L105.659 259.83L106.593 260.326L107.004 260.543L107.852 260.989L108.105 261.121L108.984 261.579L109.028 261.601L109.986 262.096L110.077 262.143L111.077 262.655L111.141 262.688L112.025 263.136L112.229 263.239L112.51 263.38L113.125 263.689L113.409 263.831L114.074 264.161L114.308 264.277L114.853 264.546L115.139 264.686L115.163 264.698V264.698L115.187 264.71L115.21 264.721L115.211 264.722L115.235 264.733V264.733L115.258 264.745V264.745L115.282 264.757H115.282L115.306 264.768L115.306 264.768L115.329 264.779L115.33 264.78L115.353 264.791L115.354 264.792L115.377 264.803L115.377 264.803L115.4 264.814L115.4 264.814L115.424 264.826L115.424 264.826L115.447 264.837L115.447 264.837L115.47 264.848L115.471 264.848L115.493 264.859L115.494 264.86L115.516 264.871L115.517 264.871L115.539 264.882L115.54 264.883L115.562 264.893L115.563 264.893L115.585 264.905L115.586 264.905L115.608 264.916L115.609 264.916L115.631 264.926L115.632 264.927L115.654 264.938L115.654 264.938L115.676 264.949L115.677 264.949L115.699 264.96L115.7 264.96L115.721 264.971L115.722 264.971L115.744 264.982L115.744 264.982L115.766 264.993L115.767 264.993L115.789 265.003L115.789 265.004L115.811 265.014L115.811 265.015L115.833 265.025L115.833 265.025L115.855 265.036L115.856 265.036L115.877 265.047L115.877 265.047L115.899 265.057L115.9 265.057L115.921 265.068L115.921 265.068L115.943 265.078H115.943L115.964 265.089H115.965L115.986 265.1H115.986L116.008 265.11L116.008 265.11L116.029 265.12L116.029 265.12L116.05 265.131H116.051L116.072 265.141L116.072 265.141L116.093 265.151H116.094L116.114 265.162H116.115L116.135 265.172H116.136L116.157 265.182L116.178 265.192L116.199 265.203L116.219 265.212H116.22L116.24 265.222V265.223L116.261 265.232L116.281 265.242L116.302 265.253L116.322 265.262H116.323L116.343 265.272L116.363 265.282L116.383 265.292L116.404 265.302L116.423 265.311L116.444 265.321L116.464 265.33L116.483 265.34L116.503 265.35L116.523 265.359L116.543 265.368C121.62 267.836 125.14 268.756 128.426 268.666C131.711 268.756 135.231 267.836 140.309 265.368L140.328 265.359L140.348 265.35L140.368 265.34L140.388 265.33L140.407 265.321L140.428 265.311L140.448 265.302L140.468 265.292L140.488 265.282L140.508 265.272L140.528 265.262H140.529L140.549 265.253L140.57 265.242L140.59 265.232L140.611 265.223V265.222L140.631 265.212H140.632L140.653 265.203L140.673 265.192L140.694 265.182L140.715 265.172H140.716L140.736 265.162H140.737L140.758 265.151H140.758L140.779 265.141L140.779 265.141L140.8 265.131H140.801L140.822 265.12L140.822 265.12L140.843 265.11L140.843 265.11L140.865 265.1H140.865L140.887 265.089H140.887L140.908 265.078H140.909L140.93 265.068L140.93 265.068L140.952 265.057L140.952 265.057L140.974 265.047L140.974 265.047L140.996 265.036L140.996 265.036L141.018 265.025L141.018 265.025L141.04 265.015L141.04 265.014L141.062 265.004L141.062 265.003L141.084 264.993L141.085 264.993L141.106 264.982L141.107 264.982L141.129 264.971L141.13 264.971L141.152 264.96L141.152 264.96L141.174 264.949L141.175 264.949L141.197 264.938L141.197 264.938L141.219 264.927L141.22 264.926L141.242 264.916L141.243 264.916L141.265 264.905L141.266 264.905L141.288 264.893L141.289 264.893L141.311 264.883L141.312 264.882L141.334 264.871L141.335 264.871L141.357 264.86L141.358 264.859L141.38 264.848L141.381 264.848L141.404 264.837L141.404 264.837L141.427 264.826L141.428 264.826L141.45 264.814L141.451 264.814L141.474 264.803L141.474 264.803L141.498 264.792L141.498 264.791L141.521 264.78L141.522 264.779L141.545 264.768L141.545 264.768L141.569 264.757H141.569L141.592 264.745V264.745L141.617 264.733V264.733L141.64 264.722L141.641 264.721L141.664 264.71L141.688 264.698V264.698L141.712 264.686L141.997 264.546L142.543 264.277L142.777 264.161L143.442 263.831L143.727 263.689L144.341 263.38L144.622 263.239L144.826 263.136L145.71 262.688L145.774 262.655L146.774 262.143L146.866 262.096L147.823 261.601L147.867 261.579L148.079 261.468C147.315 259.558 146.562 257.845 145.91 256.482C149.974 253.274 155.339 247.186 156.978 243.85C163.662 243.661 162.321 243.818 165.14 243.698C164.544 244.932 166.146 247.896 166.666 251.102L167.054 250.871L167.664 250.505L168.497 250.003L168.816 249.811L168.95 249.73L168.968 249.719L168.986 249.708L169.005 249.697L169.023 249.686L169.041 249.675L169.077 249.653L169.095 249.642L169.951 249.121L169.97 249.109L169.988 249.098L170.006 249.087L170.025 249.076L170.043 249.065L170.061 249.054L170.08 249.043L170.098 249.031L170.116 249.02L170.887 248.547L171.382 248.243L172.052 247.828L172.453 247.579C172.88 244.721 174.414 245.065 175.706 241.458C179.208 238.555 176.912 237.346 177.838 233.789C178.764 230.231 182.468 227.298 182.468 227.298C182.468 227.298 179.152 226.293 174.973 225.198C170.792 224.102 171.746 224.624 169.311 226.405C165.931 228.877 167.309 229.133 165.908 228.205C176.184 208.608 182.728 185.91 193.006 166.313C197.724 155.976 195.329 129.178 183.723 118.619C180.488 115.6 177.903 111.265 174.496 106.647C173.699 105.568 174.515 105.08 175.229 103.82C175.618 103.133 176.466 100.746 176.846 97.4188C177.144 94.8106 176.747 91.437 178.348 89.0976C183.367 81.7648 183.155 90.0527 185.824 77.0124C186.255 74.9098 189.047 64.1077 189.911 62.7408C195.31 54.2007 200.315 48.709 198.042 41.4953C196.342 36.038 191.996 34.9298 189.669 30.0274C186.346 23.0229 180.959 16.1803 175.074 11.1761C170.671 7.43174 165.63 5.54342 160.103 3.41774C149.548 -0.641018 137.178 -1.35992 126.123 2.74884C107.583 9.63866 105.589 27.0404 98.0655 41.4221C92.257 52.5254 86.1025 58.0419 79.6869 65.7395C50.7662 77.2792 40.3846 87.6888 29.1761 103.535C16.9407 120.833 12.3566 141.269 8.54688 164.052L8.55251 164.071L8.58948 164.198L8.64486 164.388L8.65414 164.419L8.7188 164.639L8.73797 164.704L8.78422 164.86L8.83208 165.021L8.85025 165.081L8.9163 165.302L8.92695 165.337L9.02281 165.654L9.04988 165.744L9.11729 165.965L9.11942 165.971L9.18522 166.186L9.2168 166.288L9.25338 166.407L9.31516 166.605L9.32231 166.628L9.3916 166.849L9.41429 166.922L9.46116 167.07L9.51453 167.239L9.53121 167.292L9.60188 167.512L9.61566 167.556L9.67255 167.734L9.71767 167.873L9.74436 167.955L9.81566 168.176L9.82067 168.191L9.92481 168.508L9.96102 168.619L10.0296 168.825L10.0342 168.84L10.108 169.062L10.1351 169.143L10.1819 169.283L10.242 169.46L10.2569 169.504L10.3322 169.726L10.3492 169.778L10.4075 169.947L10.4583 170.096L10.4836 170.169L10.5105 170.247V170.248L10.5375 170.326L10.5645 170.404L10.5915 170.482H10.5918L10.6189 170.561H10.6192L10.6462 170.639L10.6732 170.717H10.6736L10.7283 170.874H10.7286L10.756 170.952H10.7564L10.8664 171.266H10.8668C11.3016 172.494 11.7595 173.724 12.2447 174.958H12.2451L12.2759 175.036L12.3069 175.115L12.3381 175.194C14.3685 180.34 17.0379 185.357 20.1944 190.223L20.2051 190.239L20.3311 190.433C17.0892 171.082 17.9651 149.547 23.0656 134.685C32.8089 106.301 49.8775 82.9115 86.2623 70.2749C89.5662 67.9372 98.723 58.2696 101.076 55.8272C100.107 70.3801 112.889 84.0478 121.512 88.9998ZM205.985 223.536C205.37 219.369 204.154 215.757 200.076 213.853C195.825 211.936 190.055 210.652 187.41 206.348C186.028 204.097 184.562 202.176 181.313 200.701C181.074 201.592 179.034 208.396 178.558 209.689C181.247 210.903 181.937 211.413 182.948 213.06C186.042 218.094 191.126 217.965 196.208 220.257C199.647 221.758 200.371 224.604 200.54 227.969L200.834 227.737L201.486 227.218H201.486L202.137 226.697L202.137 226.697L202.786 226.173L202.787 226.172L203.435 225.646L204.082 225.116V225.115L204.728 224.583H204.728L205.373 224.048L205.985 223.536ZM116.32 128.967C116.717 128.955 120.609 127.844 124.037 129.318C125.906 130.122 126.37 132.669 128.449 133.254C137.517 135.804 151.089 132.999 150.803 135.424C150.245 140.143 158.858 146.904 158.896 146.916C158.878 146.968 137.929 163.74 137.059 174.681C135.422 158.037 115.816 128.983 116.32 128.967ZM107.35 242.919C104.41 242.936 101.471 242.953 98.5323 242.969C102.916 230.457 100.169 231.947 108.262 221.454C113.102 225.409 116.673 230.047 119.302 235.833C115.317 238.196 111.334 240.557 107.35 242.919Z" fill="#BA1319"/>
<path fill-rule="evenodd" clip-rule="evenodd" d="M189.669 55.2183C189.65 54.5874 183.638 60.8822 177.338 57.5222C173.641 55.5504 167.514 52.358 163.628 51.2498C160.921 50.4771 161.405 50.1361 158.617 50.4956C156.419 50.7787 154.247 51.4388 152.185 52.5097C146.644 55.3877 139.434 59.8154 133.285 61.967C153.999 63.2912 150.289 48.9814 168.119 57.9164C173.04 60.3825 181.373 63.7872 187.217 64.0283C190.943 64.1814 189.763 58.3555 189.669 55.2183Z" fill="#BA1319"/>
<path fill-rule="evenodd" clip-rule="evenodd" d="M154.091 73.4992C159.588 71.9406 158.254 71.6866 163.369 74.1774C165.627 75.2764 167.885 76.3748 170.143 77.4742C172.468 77.7729 173.974 77.3086 175.295 76.6738C180.368 74.2363 178.18 83.2627 172.198 83.7107C159.819 88.229 167.245 81.9492 157.583 80.2892C158.21 79.7518 158.058 79.4928 159.261 78.8676C163.618 77.9253 162.616 80.5553 166.781 80.0874C160.934 75.4594 161.41 74.8104 154.091 73.4992Z" fill="#BA1319"/>
<path fill-rule="evenodd" clip-rule="evenodd" d="M132.052 164.457L126.217 160.578L130.759 150.359L133.527 141.557L132.052 164.457Z" fill="#BA1319"/>
<path fill-rule="evenodd" clip-rule="evenodd" d="M146.869 132.103C145.371 132.496 143.639 133.48 142.142 133.874C146.565 141.135 147.975 149.988 147.527 159.82C149.707 158.406 151.886 156.992 154.066 155.577C153.172 147.866 152.718 139.553 146.869 132.103Z" fill="#BA1319"/>
</svg>
