<svg width="206" height="213" viewBox="0 0 206 213" fill="none" xmlns="http://www.w3.org/2000/svg">
<path d="M205.302 90.045L205.334 89.4435L205.372 88.675C205.387 88.3473 205.401 88.0208 205.415 87.6937L205.448 86.9153L205.481 85.9949C205.492 85.7029 205.503 85.4101 205.511 85.1184L205.532 84.4109C205.541 84.0713 205.551 83.7317 205.559 83.3938L205.572 82.7824C205.579 82.4229 205.588 82.0626 205.593 81.7041C205.602 81.1544 205.61 80.6065 205.615 80.0605C205.618 79.692 205.62 79.3247 205.621 78.9576L205.625 78.3575L205.624 77.4062L205.623 76.6669C205.621 76.3341 205.618 76.0042 205.615 75.6736L205.61 75.0412L205.596 73.9641L205.587 73.4122C205.58 73.0544 205.573 72.699 205.565 72.3438L205.553 71.7904L205.526 70.7535L205.508 70.1435L205.475 69.1211L205.458 68.6327L205.416 67.5422L205.395 67.0183L205.351 66.012L205.324 65.4403C205.307 65.1041 205.291 64.769 205.274 64.436L205.257 64.1284C205.132 61.7705 204.98 59.483 204.808 57.2796L204.801 57.1779L204.7 55.9283L204.688 55.7821L204.593 54.6763L204.564 54.3509L204.478 53.3976L204.436 52.9395L204.354 52.0826L204.307 51.6032L204.214 50.6681L204.189 50.4269C204.152 50.0632 204.114 49.7026 204.076 49.3452L204.063 49.2236C204.023 48.8533 203.983 48.4865 203.943 48.1234L203.924 47.9556C203.616 45.1947 203.29 42.6441 202.969 40.3426L202.959 40.2666C202.871 39.6407 202.783 39.0333 202.697 38.4448L202.666 38.2384L202.566 37.5661L202.521 37.2704L202.411 36.5493L202.402 36.4943C202.178 35.0483 201.963 33.7416 201.765 32.5952L201.648 31.9217L201.646 31.9104C201.498 31.0671 201.362 30.3247 201.241 29.6812L201.223 29.586C200.949 28.1298 200.757 27.2213 200.7 26.9515C200.287 25.0786 199.695 23.2579 198.636 21.5435C195.856 16.609 191.448 14.5459 186.58 13.1606C153.625 3.69459 127.746 -0.25011 102.812 0.0123901C77.8782 -0.25011 51.9993 3.69459 19.0448 13.1606C14.1766 14.5459 9.769 16.609 6.9888 21.5435C5.9295 23.2579 5.3376 25.0786 4.9249 26.9515C4.8668 27.221 4.676 28.1298 4.4013 29.586L4.3835 29.6812C4.2627 30.3247 4.1272 31.0654 3.9784 31.9104L3.9767 31.9217L3.8593 32.5952C3.6618 33.7421 3.4463 35.0481 3.2224 36.4943L3.2139 36.5493L3.1036 37.2704L3.0588 37.5661L2.9582 38.2384L2.9276 38.4448C2.8409 39.0339 2.7538 39.6405 2.666 40.2666L2.6555 40.3426C2.3343 42.6452 2.0083 45.1941 1.7005 47.9556L1.6815 48.1234C1.6409 48.4863 1.601 48.8533 1.5616 49.2236L1.5485 49.3452L1.4357 50.4269L1.4108 50.6681L1.3172 51.6032L1.2705 52.0826L1.1888 52.9395L1.1463 53.3976L1.0601 54.3509L1.0318 54.6763C0.999699 55.0422 0.967998 55.411 0.936798 55.7821L0.924896 55.9283C0.890896 56.3422 0.856902 56.758 0.823402 57.1779L0.816101 57.2796C0.644001 59.4833 0.492302 61.7703 0.367302 64.1284L0.350296 64.436L0.301003 65.4403L0.273499 66.012L0.229897 67.0183L0.208 67.5422L0.166603 68.6327L0.149399 69.1211L0.116501 70.1435L0.0982971 70.7535L0.071701 71.7904L0.0595016 72.3438L0.038002 73.4122L0.0289001 73.9641L0.0149994 75.0412L0.00900269 75.6736C0.00620269 76.0044 0.0033989 76.3344 0.0019989 76.6669L0.000495911 77.4062L0 78.3575L0.00309753 78.9576C0.00539753 79.3249 0.00650295 79.6917 0.00990295 80.0605C0.015303 80.6068 0.0225974 81.1541 0.0310974 81.7041C0.0367974 82.0626 0.0449962 82.4229 0.0526962 82.7824L0.0652008 83.3938C0.0731008 83.7314 0.0830031 84.0713 0.0929031 84.4109L0.113098 85.1184C0.121898 85.4104 0.132597 85.7029 0.143097 85.9949C0.153897 86.301 0.164398 86.608 0.176598 86.9153L0.209396 87.6937C0.223296 88.0208 0.237498 88.3473 0.253098 88.675L0.2911 89.4435C0.3084 89.7865 0.326497 90.1303 0.345497 90.4739L0.388 91.2032L0.451797 92.2478L0.501099 92.9979C0.525199 93.3508 0.550196 93.7037 0.575996 94.0577L0.629501 94.78C0.657901 95.153 0.687897 95.5264 0.718597 95.9002L0.771599 96.5443C0.808099 96.9658 0.845799 97.3882 0.884399 97.8111L0.932602 98.3361C0.973702 98.7737 1.0176 99.2128 1.0621 99.6519L1.1134 100.162L1.1324 100.351L1.1375 100.382C1.2852 101.783 1.4479 103.188 1.6285 104.593C9.0779 103.797 17.0056 104.053 25.0356 105.651L41.0346 55.6639C42.8626 49.9518 46.9873 49.1107 52.7825 47.3507C62.615 44.3644 67.0986 43.1846 76.9314 40.1972C66.5061 63.6542 56.0806 87.1111 45.6556 110.568C78.4122 121.431 105.356 140.192 145.755 128.044C145.83 128.021 146.328 127.815 146.678 127.673C147.304 123.798 148.303 119.628 149.678 115.163C151.085 110.592 152.57 105.925 154.134 101.164C155.761 96.1905 164.183 76.3579 160.74 71.0265C160.157 70.1217 159.171 69.9312 157.784 70.4548C145.282 75.1779 127.811 109.719 122.538 112.249C118.133 114.363 113.45 113.486 108.225 112.382C106.204 111.955 104.812 111.383 103.934 110.052C102.849 108.408 103.791 105 104.76 100.388C106.985 89.8131 111.822 74.3714 112.464 69.1154C113.091 63.9759 109.865 63.7865 106.822 67.1136C97.2603 77.5652 89.7222 94.5586 81.119 116.679C80.3369 118.69 65.8117 111.54 60.374 109.154C56.9857 107.668 58.9192 105.253 60.3552 101.682C65.404 89.1249 82.6049 49.5549 106.87 38.1168C129.171 27.6051 146.929 43.7669 141.656 69.451C149.917 61.3904 167.003 54.5995 179.864 58.8806C182.724 59.8333 185.05 61.19 186.844 62.9517C188.638 64.7135 189.876 66.8327 190.559 69.3087C191.242 71.7853 191.345 74.4037 190.867 77.1655C190.291 80.4985 189.348 84.1651 188.04 88.1648C186.731 92.1645 185.39 96.3544 184.016 100.735C181.119 108.926 179.222 115.258 178.324 119.734C177.428 124.21 177.521 126.71 178.602 127.234C179.685 127.757 181.777 126.186 184.879 122.52C187.981 118.853 192.03 112.925 197.025 104.735C199.963 99.8775 202.676 95.0688 205.166 90.3075L205.302 90.045ZM176 26.9625C146.765 18.5646 123.935 15.1293 101.93 15.4641C79.9316 15.7985 58.6026 19.9133 32.4156 26.611H32.3747C27.0901 27.8835 23.919 29.5171 21.9838 31.3732C20.2135 33.0706 19.4573 35.0602 18.9938 37.1536L18.9995 37.1548C18.6777 38.6532 13.661 62.6005 14.9006 90.4302C15.0239 93.1957 15.2093 95.9992 15.4666 98.8213C13.727 98.8324 11.7859 98.8885 10.254 98.8443C10.0097 96.0893 9.8317 93.3539 9.7115 90.6553C8.4413 62.1442 13.5822 37.606 13.9116 36.0705L13.922 36.0504C14.5805 33.063 15.6951 30.1844 18.4022 27.5884C20.9449 25.15 24.8626 23.0626 31.1354 21.5472L31.1332 21.5379C57.6433 14.7574 79.3094 10.5907 101.869 10.2477C124.421 9.90469 147.712 13.395 177.425 21.9302C180.538 22.8194 183.487 24.0116 186 26.151C188.568 28.3359 190.581 31.4163 191.692 35.9991L191.712 36.0603C191.903 36.9501 193.708 45.5609 194.946 58.1921C194.629 57.975 194.303 57.7884 193.969 57.6283C193.667 57.3647 193.336 57.1197 192.974 56.8981C191.666 56.0987 190.758 55.3146 189.368 54.8614C188.206 44.6884 186.791 37.9383 186.624 37.165L186.63 37.1638C185.133 31.0702 181.785 28.6052 176.01 26.9625H176ZM196.872 80.4758C196.569 86.4141 196.128 92.1409 195.209 98.0163C192.981 100.714 190.522 103.349 188.388 106.131C189.624 100.652 189.688 101.839 190.27 96.3277C191.748 94.4974 195.846 82.5658 196.872 80.4758Z" fill="#808285"/>
<path d="M5.1709 122.773C6.0497 126.553 7.0889 130.314 8.3922 134.101C12.4472 130.871 15.0604 128.215 17.2513 123.259C15.3884 123.001 13.5334 122.826 11.6852 122.751C9.352 122.656 7.1889 122.672 5.1709 122.773ZM176.158 153.954C171.725 159.421 166.563 164.549 161.113 169.267C141.784 185.999 118.756 197.654 112.324 200.754L111.625 201.035C104.706 203.669 101.666 204.826 93.2904 200.754L93.2924 200.749C86.8498 197.645 63.8322 185.992 44.5118 169.267C38.414 163.988 32.6761 158.196 27.9175 151.989C29.3924 151.18 30.6918 149.855 31.7386 148.428C36.3163 154.467 41.9252 160.138 47.9106 165.319C66.7604 181.637 89.2556 193.021 95.5391 196.049H95.5491C101.915 199.144 104.321 198.229 109.793 196.145L110.23 195.98C116.703 192.852 139.002 181.517 157.714 165.318C160.347 163.039 162.908 160.665 165.339 158.206C165.496 158.212 165.656 158.214 165.82 158.214C168.991 158.214 169.079 157.535 171.74 156.703C173.199 156.247 174.726 155.302 175.976 154.027L176.158 153.954ZM75.7553 201.005L75.7953 201.028C76.1802 201.25 76.5606 201.469 76.9382 201.684L77.0023 201.721C77.3713 201.932 77.7364 202.139 78.0979 202.344L78.2115 202.408C80.4642 203.681 82.5624 204.828 84.4633 205.841L84.5866 205.907L85.3339 206.304L85.6632 206.478L86.3419 206.835L86.5445 206.94L87.2478 207.307L87.283 207.326L88.05 207.722L88.1231 207.76L88.9237 208.169L88.9752 208.196L89.6828 208.555L89.846 208.637L90.0711 208.75L90.5629 208.997L90.7906 209.111L91.3235 209.376L91.51 209.468L91.9474 209.684L92.1753 209.796C92.5874 209.998 92.9647 210.181 93.2992 210.342C97.3644 212.319 100.182 213.056 102.812 212.983C105.443 213.056 108.26 212.319 112.325 210.342C112.66 210.181 113.036 209.999 113.449 209.796L113.677 209.684L114.115 209.468L114.301 209.376L114.834 209.111L115.062 208.997L115.553 208.75L115.779 208.637L115.942 208.555L116.649 208.196L116.701 208.169L117.501 207.76L117.575 207.722L118.342 207.326L118.377 207.307L119.08 206.94L119.282 206.835L119.961 206.478L120.291 206.304L121.038 205.907L121.161 205.841C123.063 204.827 125.16 203.681 127.413 202.408L127.527 202.344C127.888 202.139 128.253 201.932 128.622 201.721L128.686 201.684C129.064 201.469 129.444 201.25 129.829 201.028L129.869 201.005C151.543 188.488 184.922 165.568 195.748 138.125C197.902 132.663 199.439 127.283 200.663 121.859C201.207 119.772 201.694 117.597 202.192 115.162C196.663 123.644 191.488 130.501 186.668 135.733C177.566 145.542 169.005 150.446 160.982 150.446C156.168 150.446 152.449 149.113 149.825 146.446C147.824 144.446 146.638 141.852 146.264 138.661C145.889 135.471 146.013 131.9 146.634 127.948L146.671 127.715C146.356 127.866 145.937 128.062 145.895 128.095C104.286 160.478 69.1883 139.654 37.3116 128.547C33.4431 136.888 23.9782 145.33 16.1665 150.161C30.4667 172.216 57.3383 190.369 75.7553 201.005Z" fill="#BA1319"/>
<path d="M205.615 80.0605C205.618 79.692 205.62 79.3249 205.622 78.9579L205.615 80.0605Z" fill="#BA1319"/>
<path d="M205.572 82.7822C205.579 82.4225 205.587 82.0622 205.593 81.7037L205.572 82.7822Z" fill="#BA1319"/>
</svg>
