<svg width="751" height="900" viewBox="0 0 751 900" fill="none" xmlns="http://www.w3.org/2000/svg">
<path d="M0 760C0 682.68 62.6801 620 140 620H280V900H0V760Z" fill="#3F6ACA"/>
<circle cx="140" cy="760" r="140" fill="#5183F4"/>
<path d="M140 0H751C751 117 751 530 751 900C409.5 900 409.249 900 280 900C280 761.5 280 895.5 280 760H140V0Z" fill="url(#paint0_linear_209_100)"/>
<path d="M467 756H751V582C751 521.249 701.751 472 641 472H467V756Z" fill="#3F42CC"/>
<path d="M611 378C611 350.386 633.386 328 661 328H751V418C751 445.614 728.614 468 701 468H611V378Z" fill="#FF8B20"/>
<path d="M751 234C751 206.386 728.614 184 701 184H611V274C611 301.614 633.386 324 661 324H751V234Z" fill="#FFCF26"/>
<path d="M607 418C607 445.614 584.614 468 557 468H467V378C467 350.386 489.386 328 517 328H557C584.614 328 607 350.386 607 378V418Z" fill="#1875FF"/>
<path d="M607 234C607 206.386 584.614 184 557 184H467V274C467 301.614 489.386 324 517 324H557C584.614 324 607 301.614 607 274V234Z" fill="#BD17D8"/>
<path d="M611 850C611 877.614 633.386 900 661 900H751V810C751 782.386 728.614 760 701 760H661C633.386 760 611 782.386 611 810V850Z" fill="#512BCE"/>
<path d="M140 475H280V565C280 592.614 257.614 615 230 615H190C162.386 615 140 592.614 140 565V475Z" fill="#FF9F8A"/>
<path d="M280 331C280 408.32 217.32 471 140 471C140 319.545 140 396.865 140 319.545C140 242.226 140 319.545 140 191C217.32 191 280 253.68 280 331Z" fill="#5183F4"/>
<path d="M0 191C0 113.68 62.6801 51 140 51C140 202.455 140 125.135 140 202.455C140 279.774 140 202.455 140 331C62.6801 331 0 268.32 0 191Z" fill="#CFE7E9"/>
<path d="M210 759C196.155 759 182.622 754.895 171.11 747.203C159.599 739.511 150.627 728.579 145.328 715.788C140.03 702.997 138.644 688.922 141.345 675.344C144.046 661.765 150.713 649.292 160.503 639.503C170.292 629.713 182.765 623.046 196.344 620.345C209.922 617.644 223.997 619.03 236.788 624.328C249.579 629.627 260.511 638.599 268.203 650.11C275.895 661.622 280 675.155 280 689L210 689L210 759Z" fill="#01A9B6"/>
<path d="M467 760H607V850C607 877.614 584.614 900 557 900H517C489.386 900 467 877.614 467 850V760Z" fill="#FAC41A"/>
<path fill-rule="evenodd" clip-rule="evenodd" d="M308.559 762.679C325.304 746.139 352.454 746.139 369.199 762.679L377.098 770.481L384.996 762.679C401.741 746.139 428.891 746.139 445.636 762.679C462.381 779.219 462.381 806.036 445.636 822.576L377.098 890.274L308.559 822.576C291.814 806.036 291.814 779.219 308.559 762.679Z" fill="#FF0000"/>
<path d="M443.791 731.274H310.483V697.011H410.062V653.645H443.791V731.274Z" stroke="white" stroke-width="5"/>
<path d="M310.483 386.496H443.791V352.232H310.483V386.496Z" stroke="white" stroke-width="5"/>
<path d="M400.425 302.709C400.451 324.89 400.467 337.295 401.228 336.973C412.627 336.685 418.808 334.562 428.265 329.21C434.048 324.958 436.317 322.26 439.507 317.164C443.579 309.121 445.473 304.217 446.735 293.34C447.074 286.779 446.825 282.946 445.932 275.941C443.653 265.992 441.418 260.951 435.76 252.92C427.714 244.211 421.367 240.969 405.779 239L396.945 239.268C386.147 241.586 380.21 243.22 372.05 253.187C365.737 264.238 362.817 272.173 358.398 288.522C355.806 296.135 353.89 299.769 346.888 301.371C341.086 300.167 339.161 297.515 338.59 288.522C339.524 281.448 341.267 278.245 350.635 276.476V242.748C336.556 243.906 329.438 245.929 319.584 254.526C311.647 263.673 308.316 270.424 307.27 289.593C307.46 303.983 310.046 309.123 314.498 318.235C322.631 329.467 328.913 332.465 341.534 335.099L350.368 335.635C357.512 335.561 361.183 334.687 367.232 331.887C375.082 326.981 378.381 323.259 382.758 315.291C387.16 304.983 388.987 298.967 391.592 287.987C394.441 278.962 396.625 275.225 403.102 274.335C409.255 274.384 415.035 279.703 414.613 287.987C414.19 296.27 412.216 300.383 400.425 302.709Z" stroke="white" stroke-width="5"/>
<path fill-rule="evenodd" clip-rule="evenodd" d="M443.791 501.602H310.483V466.267L311.018 442.443C312.511 432.488 314.676 427.656 320.119 419.957C327.915 411.209 333.653 408.505 343.408 405.235C354.41 403.48 360.602 403.725 371.248 405.235C383.722 409.567 388.586 413.808 395.072 422.902L443.523 398.81L443.791 436.019L403.102 455.827V468.409H443.791V501.602ZM371.783 468.141H343.14C342.171 461.516 342.22 457.506 343.14 449.938C345.064 441.737 350.1 438.16 357.328 438.16C364.555 438.16 370.19 441.203 371.783 449.938V468.141Z" stroke="white" stroke-width="5"/>
<path fill-rule="evenodd" clip-rule="evenodd" d="M364.553 650.17C374.518 651.283 379.998 651.062 389.715 650.17C401.012 648.46 406.825 645.812 417.019 640.534C427.048 633.466 431.429 628.448 438.166 618.583C445.008 605.103 446.132 597.791 447 584.855C446.778 569.324 444.284 561.551 437.899 548.449C430.976 538.841 426.449 534.163 417.019 527.302C406.672 522.064 400.668 519.862 389.715 517.665C379.862 516.478 374.428 516.216 364.553 517.933C352.963 520.08 347.107 521.921 337.249 527.302C328.009 534.363 323.203 538.734 316.369 548.449C309.649 561.575 307.523 569.392 307 584.855C307.758 598.54 309.454 605.975 316.101 618.583C322.441 628.698 327.283 633.273 336.981 640.534C347.889 646.59 353.928 648.628 364.553 650.17ZM349.294 563.172C343.329 570.409 341.991 575.295 340.996 584.587C342.01 593.891 343.755 598.334 349.294 604.664C356.659 612.11 362.192 614.75 374.189 615.906C388.9 616.25 395.352 613.279 404.973 604.664C410.986 597.37 412.456 592.804 412.468 584.587C412.477 574.726 411.234 570.446 404.973 563.172C396.236 555.264 386.953 550.983 374.189 551.929C363.551 552.718 358.096 554.192 349.294 563.172Z" stroke="white" stroke-width="5"/>
<path d="M152 88.2333V14.9139H170.845V69.6826H194.696V88.2333H152Z" fill="white" stroke="white"/>
<path d="M341.627 14.9139V88.2333H360.473V14.9139H341.627Z" fill="white" stroke="white"/>
<path d="M387.71 64.3825C375.51 64.3966 368.688 64.4052 368.865 64.8242C369.023 71.0933 370.191 74.4928 373.134 79.6941C375.473 82.875 376.957 84.1231 379.76 85.8777C384.183 88.1172 386.881 89.159 392.863 89.8529C396.471 90.0392 398.58 89.9024 402.433 89.4112C407.904 88.1577 410.677 86.9283 415.094 83.8165C419.884 79.3912 421.667 75.9005 422.75 67.327L422.603 62.4685C421.328 56.5297 420.429 53.2644 414.947 48.7764C408.869 45.304 404.505 43.698 395.513 41.2677C391.326 39.8419 389.327 38.7881 388.446 34.937C389.108 31.7457 390.567 30.6874 395.513 30.3729C399.403 30.8868 401.165 31.8455 402.138 36.9981H420.689C420.052 29.2543 418.939 25.3393 414.211 19.9197C409.18 15.5544 405.467 13.7224 394.924 13.1473C387.009 13.2516 384.182 14.6737 379.171 17.1224C372.993 21.5958 371.344 25.051 369.895 31.9924L369.601 36.8509C369.641 40.78 370.122 42.7994 371.662 46.1263C374.36 50.4436 376.407 52.2584 380.79 54.6655C386.459 57.0868 389.768 58.0913 395.807 59.524C400.771 61.0912 402.826 62.2925 403.316 65.8548C403.289 69.2389 400.363 72.4181 395.807 72.1855C391.251 71.953 388.989 70.8675 387.71 64.3825Z" fill="white" stroke="white"/>
<path fill-rule="evenodd" clip-rule="evenodd" d="M278.321 88.2333V14.9139H297.755L310.858 15.2084C316.334 16.0295 318.991 17.2204 323.225 20.2141C328.037 24.5018 329.524 27.6576 331.323 33.0229C332.288 39.074 332.153 42.4796 331.323 48.3346C328.94 55.1955 326.607 57.871 321.606 61.4378L334.856 88.086L314.392 88.2333L303.497 65.8547H296.577V88.2333H278.321ZM296.724 48.6289V32.8755C300.368 32.3425 302.574 32.3694 306.736 32.8755C311.246 33.9337 313.214 36.7033 313.214 40.6786C313.214 44.6539 311.54 47.7527 306.736 48.6289H296.724Z" fill="white" stroke="white"/>
<path fill-rule="evenodd" clip-rule="evenodd" d="M196.608 44.6539C195.996 50.1346 196.118 53.1488 196.608 58.4933C197.549 64.7067 199.005 67.9035 201.908 73.5105C205.796 79.0262 208.555 81.4361 213.981 85.1415C221.395 88.9044 225.417 89.5225 232.532 90C241.073 89.8779 245.349 88.5061 252.555 84.9943C257.839 81.1867 260.412 78.6972 264.186 73.5105C267.067 67.8196 268.278 64.5171 269.486 58.4933C270.139 53.0741 270.283 50.0854 269.339 44.6539C268.158 38.2798 267.145 35.0589 264.186 29.6367C260.302 24.555 257.898 21.9118 252.555 18.153C245.336 14.4567 241.036 13.2879 232.532 13C225.005 13.4167 220.916 14.3497 213.981 18.0057C208.418 21.4925 205.902 24.1557 201.908 29.4895C198.577 35.4889 197.457 38.8105 196.608 44.6539ZM244.457 36.262C240.477 32.9812 237.789 32.245 232.679 31.6979C227.562 32.2557 225.118 33.2154 221.637 36.262C217.542 40.3123 216.09 43.3555 215.453 49.9541C215.265 58.0448 216.898 61.5934 221.637 66.8853C225.649 70.1921 228.16 71.0009 232.679 71.0077C238.103 71.0121 240.457 70.3289 244.457 66.8853C248.807 62.0796 251.161 56.974 250.641 49.9541C250.207 44.1031 249.396 41.1028 244.457 36.262Z" fill="white" stroke="white"/>
<path d="M155.285 105.126C150.232 138.903 144.912 175.015 145.001 175.162C145.06 175.31 149.582 175.399 154.989 175.399H164.889L165.037 174.719C165.096 174.364 166.367 164.908 167.844 153.708C169.292 142.508 170.533 133.288 170.593 133.259C170.652 133.2 174.937 142.627 180.138 154.211L189.594 175.251L192.52 175.34L195.475 175.428L204.902 154.506C210.103 143.011 214.447 133.466 214.594 133.288C214.742 133.141 214.831 133.229 214.831 133.525C214.831 134.264 220.15 174.601 220.298 175.015C220.386 175.31 222.691 175.399 230.375 175.399H240.304L240.156 174.424C240.038 173.921 237.644 157.52 234.778 138.017C231.911 118.513 229.518 102.378 229.459 102.171C229.37 101.905 227.095 101.817 219.5 101.817H209.659L201.237 121.645C196.627 132.55 192.756 141.504 192.667 141.563C192.579 141.622 188.707 132.727 184.068 121.823L175.616 101.964L165.717 101.876L155.787 101.817L155.285 105.126Z" fill="black"/>
<path d="M255.819 138.367C248.047 158.492 241.723 175.04 241.723 175.188C241.723 175.306 246.481 175.365 252.273 175.336L262.822 175.247L264.773 169.337L266.723 163.427H279.548H292.344L294.324 169.337L296.304 175.247L307.119 175.336C313.089 175.365 317.965 175.306 317.965 175.188C317.965 175.07 311.493 158.492 303.573 138.397L289.152 101.813H279.519H269.885L255.819 138.367ZM283.567 136.328L287.468 147.469L279.607 147.558C275.293 147.587 271.747 147.587 271.688 147.528C271.54 147.381 279.4 124.922 279.548 125.069C279.637 125.129 281.439 130.211 283.567 136.328Z" fill="black"/>
<path d="M323.572 138.607V175.398L346.415 175.339L369.229 175.25L369.317 166.001L369.376 156.781H356.521H343.667V129.298V101.815H333.619H323.572V138.607Z" fill="black"/>
<path d="M397.651 102.909C395.287 108.878 369.962 174.807 369.962 175.073C369.962 175.309 372.858 175.398 380.423 175.398H390.913L392.923 169.34L394.932 163.282H407.669H420.405L422.474 169.251L424.542 175.25L435.388 175.339C445.642 175.398 446.233 175.368 446.085 174.895C445.997 174.6 439.495 158.081 431.635 138.163L417.391 101.963L407.728 101.875L398.094 101.815L397.651 102.909ZM411.776 136.331C413.815 142.212 415.47 147.147 415.47 147.324C415.47 147.531 412.811 147.62 407.639 147.62C403.325 147.62 399.808 147.561 399.808 147.472C399.808 147.383 401.552 142.241 403.709 136.065C406.132 129.091 407.698 125.013 407.846 125.25C407.964 125.486 409.737 130.451 411.776 136.331Z" fill="black"/>
<path d="M477.124 100.367C464.772 102.051 454.222 109.469 448.785 120.314C447.692 122.501 446.066 127.317 445.446 130.332C444.677 134.026 444.648 143.098 445.416 146.703C447.632 157.075 453.011 165.35 461.049 170.728C470.062 176.786 482.591 178.736 493.496 175.84C506.882 172.235 516.604 161.597 519.737 146.999C520.328 144.309 520.978 139.108 520.978 137.099V136.094H501.179H481.38V142.448V148.801H490.393H499.406L498.785 150.042C497.899 151.756 495.475 154.239 493.525 155.45C489.536 157.844 483.655 158.819 479.016 157.844C472.426 156.455 467.638 151.786 465.688 144.812C464.772 141.561 464.772 135.828 465.659 132.459C467.904 124.126 474.553 118.955 483.005 118.955C489.418 118.955 495.712 122.353 498.49 127.288L499.465 129.002H509.778C518.377 129.002 520.091 128.943 520.091 128.588C520.091 127.613 518.496 122.826 517.432 120.609C512.467 110.326 503.188 103.352 490.984 100.781C488.176 100.19 480.139 99.9532 477.124 100.367Z" fill="black"/>
<path d="M528.762 126.698C528.851 149.186 528.91 151.816 529.383 153.796C530.624 159.027 532.899 163.637 535.973 167.094C544.927 177.26 562.598 180.126 575.808 173.536C583.58 169.695 588.663 163.046 590.938 153.826C591.352 152.171 591.44 148.625 591.529 126.846L591.647 101.816L581.511 101.875L571.375 101.964L571.227 126.048C571.08 147.856 571.02 150.25 570.577 151.403C568.804 155.806 565.169 158.258 560.323 158.258C556.334 158.258 553.26 156.87 551.31 154.21C549.093 151.196 549.241 152.88 549.064 126.048L548.916 101.964L538.78 101.875L528.644 101.816L528.762 126.698Z" fill="black"/>
<path d="M600.463 111.272V120.728H612.874C619.7 120.728 625.286 120.787 625.286 120.846C625.286 120.935 619.316 132.283 611.987 146.083L598.689 171.172V173.3V175.398H627.206H655.723V165.941V156.485L641.834 156.426L627.945 156.337L641.243 131.367L654.512 106.396L654.541 104.091V101.815H627.502H600.463V111.272Z" fill="black"/>
<path d="M661.043 111.272V120.728L673.454 120.787L685.866 120.876L672.568 145.994L659.27 171.113V173.241V175.398H687.786H716.303V165.941V156.485H702.414C694.79 156.485 688.525 156.426 688.525 156.367C688.525 156.308 694.524 144.99 701.823 131.219L715.151 106.219L715.062 104.091L714.974 101.963L688.023 101.875L661.043 101.815V111.272Z" fill="black"/>
<path d="M724.441 102.17C724.352 102.377 724.322 118.896 724.352 138.902L724.441 175.25L734.429 175.339L744.388 175.398V138.607V101.815H734.488C726.834 101.815 724.529 101.904 724.441 102.17Z" fill="black"/>
<defs>
<linearGradient id="paint0_linear_209_100" x1="445.5" y1="0" x2="445.5" y2="903.111" gradientUnits="userSpaceOnUse">
<stop stop-color="#FB4D3D"/>
<stop offset="0.314035" stop-color="#ED4035"/>
<stop offset="0.553645" stop-color="#DC312C"/>
<stop offset="0.873124" stop-color="#BA1319"/>
</linearGradient>
</defs>
</svg>
